<?xml version="1.0" encoding="UTF-8"?>
<!DOCTYPE svg PUBLIC "-//W3C//DTD SVG 1.1//EN" "http://www.w3.org/Graphics/SVG/1.1/DTD/svg11.dtd">
<!-- Creator: CorelDRAW X7 -->
<svg xmlns="http://www.w3.org/2000/svg" xml:space="preserve" width="84.6666mm" height="84.6666mm" version="1.1" style="shape-rendering:geometricPrecision; text-rendering:geometricPrecision; image-rendering:optimizeQuality; fill-rule:evenodd; clip-rule:evenodd"
viewBox="0 0 8467 8467"
 xmlns:xlink="http://www.w3.org/1999/xlink">
 <defs>
  <style type="text/css">
   <![CDATA[
    .fil0 {fill:#27358C}
    .fil1 {fill:#3C5EA8}
    .fil2 {fill:white}
   ]]>
  </style>
 </defs>
 <g id="Camada_x0020_1">
  <metadata id="CorelCorpID_0Corel-Layer"/>
  <g id="_2168880201776">
   <path class="fil0" d="M3454 2951c-296,-2 -478,248 -387,553 -78,56 -129,178 -125,319 2,66 17,130 44,184 36,71 80,74 61,151 -76,306 107,486 401,475 64,131 83,185 183,265 174,141 531,165 646,-20 55,-88 30,-311 30,-428 0,-601 2,-1203 2,-1805 -32,-170 -834,-310 -855,306z"/>
   <path class="fil1" d="M4540 5011l245 2 7 -155 118 -34 79 135c72,-27 301,-147 366,-192l-66 -138c14,-37 60,-80 96,-111 59,13 90,62 153,76 52,-62 71,-107 115,-171 32,-47 91,-129 106,-183l-154 -93 41 -156c62,-2 135,13 194,-6l16 -411 -203 -7c-29,-31 -44,-102 -47,-148 36,-19 61,-30 94,-48l64 -40c17,-13 13,-9 23,-20 -55,-110 -132,-262 -193,-358l-209 107c-37,-25 -66,-50 -95,-95 25,-65 93,-139 109,-204 -35,-37 -308,-194 -366,-214l-113 209 -128 -32 -3 -251 -249 1 0 2537z"/>
   <path class="fil2" d="M3816 3181l-11 73c-58,0 -118,-32 -156,-52 -49,66 -92,150 -184,181l-29 -59c189,-192 172,-112 53,-291 -171,-19 -254,45 -317,139 -103,154 -61,232 8,346 -213,133 -204,346 -70,531 117,-46 305,-72 392,30l-19 63c-64,-21 -360,-178 -379,116 -13,189 132,312 322,298 2,-3 5,-11 6,-9l33 -70c71,-136 269,-143 270,-321 0,-78 -42,-127 -55,-192l68 -28c75,205 131,308 -96,471 -52,37 -78,69 -124,103 -14,271 258,486 548,411 179,-46 154,-147 154,-330 0,-145 13,-356 -3,-493 -83,-32 -143,21 -179,65 -63,75 -35,140 -7,223 55,165 1,331 -186,314l3 -58c4,-2 9,-8 10,-5l40 -15c227,-78 -122,-347 114,-549 53,-45 116,-66 208,-65l2 -415c-84,-29 -180,-74 -281,-39 -171,60 -166,380 -389,313 -86,-26 -113,-121 -167,-193 -77,-15 -96,27 -148,-43 71,-75 43,-15 116,-48 19,-85 -29,-78 50,-120 64,62 19,74 32,140 3,18 51,87 70,119 78,125 149,80 209,-24 137,-236 192,-274 507,-192l0 -440c-219,55 -479,-13 -458,-266l63 9c46,95 20,136 140,183 84,33 194,37 247,-24 25,-71 9,-199 9,-284 -17,-80 -371,-219 -613,27 -184,188 -24,439 197,470z"/>
   <path class="fil2" d="M4622 2960c338,57 543,180 673,467 137,301 44,651 -147,863 -148,164 -348,200 -526,237l0 402 82 2 6 -143 240 -59c32,36 53,86 76,119l219 -113 -62 -127 189 -197c57,16 92,61 141,72 43,-61 102,-148 133,-207 -31,-29 -101,-71 -141,-85 25,-103 58,-169 69,-285l187 3 9 -252 -200 -9c-17,-107 -49,-175 -68,-263l174 -98 -116 -226c-64,31 -144,86 -208,102 -53,-96 -119,-108 -167,-185 28,-52 85,-141 106,-193l-213 -125 -119 189 -244 -57 -7 -238 -86 2 0 404z"/>
   <path class="fil2" d="M4622 4205c363,-10 567,-500 300,-777l-25 -25c-67,-66 -175,-122 -275,-121l0 923z"/>
  </g>
 </g>
</svg>
