<?xml version="1.0" encoding="UTF-8"?>
<!DOCTYPE svg PUBLIC "-//W3C//DTD SVG 1.1//EN" "http://www.w3.org/Graphics/SVG/1.1/DTD/svg11.dtd">
<!-- Creator: CorelDRAW X7 -->
<svg xmlns="http://www.w3.org/2000/svg" xml:space="preserve" width="12.2766mm" height="8.4666mm" version="1.1" style="shape-rendering:geometricPrecision; text-rendering:geometricPrecision; image-rendering:optimizeQuality; fill-rule:evenodd; clip-rule:evenodd"
viewBox="0 0 1228 847"
 xmlns:xlink="http://www.w3.org/1999/xlink">
 <defs>
  <style type="text/css">
   <![CDATA[
    .fil2 {fill:#FEFEFE;fill-rule:nonzero}
    .fil0 {fill:#7CCBEF;fill-rule:nonzero}
    .fil1 {fill:#516199;fill-rule:nonzero}
   ]]>
  </style>
 </defs>
 <g id="Camada_x0020_1">
  <metadata id="CorelCorpID_0Corel-Layer"/>
  <g id="_2782997120016">
   <polygon class="fil0" points="449,779 827,779 827,634 449,634 "/>
   <g>
    <path class="fil1" d="M827 790l-378 0 0 -22 378 0 10 11 -10 11zm10 -11l0 11 -10 0 10 -11zm0 -145l0 145 -21 0 0 -145 11 -11 10 11zm-10 -11l10 0 0 11 -10 -11zm-378 0l378 0 0 21 -378 0 -11 -10 11 -11zm-11 11l0 -11 11 0 -11 11zm0 145l0 -145 22 0 0 145 -11 11 -11 -11zm11 11l-11 0 0 -11 11 11z"/>
   </g>
   <path class="fil2" d="M383 246c0,0 -43,40 -27,105 0,0 35,107 123,191l0 92 321 0 0 -87 44 -38c0,0 32,-24 31,-66l0 -238 -170 0 -322 41z"/>
   <g>
    <path class="fil1" d="M366 347l-20 7 -1 -1 -1 -6 -1 -7 -1 -6 0 -6 -1 -6 1 -5 0 -6 1 -5 1 -6 1 -5 1 -4 1 -5 2 -4 1 -5 2 -4 2 -3 2 -4 2 -3 1 -3 2 -3 2 -3 2 -3 2 -2 1 -2 2 -2 1 -2 1 -1 2 -1 0 -1 1 -1 1 0 0 0 14 15 1 0 -1 1 0 0 -1 1 -1 1 -1 1 -1 1 -1 1 -1 2 -2 2 -1 2 -2 2 -1 3 -2 2 -1 3 -2 3 -1 3 -2 4 -1 3 -1 4 -1 3 -1 4 -1 4 -1 5 0 4 -1 5 0 4 0 5 1 5 0 5 1 6 1 5 0 -1zm-20 7l-1 0 0 -1 1 1zm144 188l-22 0 3 7 -8 -8 -8 -8 -8 -8 -7 -9 -7 -8 -7 -8 -6 -9 -6 -8 -6 -8 -6 -9 -5 -8 -5 -8 -5 -8 -4 -7 -4 -8 -4 -7 -4 -7 -3 -7 -3 -6 -3 -6 -3 -6 -2 -6 -2 -5 -2 -4 -2 -4 -1 -4 -2 -3 -1 -3 0 -2 -1 -2 0 -1 0 0 20 -7 0 1 0 0 1 2 1 2 1 2 1 3 1 4 2 4 1 4 2 5 3 5 2 6 3 5 3 7 3 6 4 7 4 7 4 7 4 7 4 8 5 8 5 7 6 8 5 8 6 8 6 8 7 8 6 8 7 8 8 8 7 8 8 8 4 8zm-4 -8l4 3 0 5 -4 -8zm-18 100l0 -92 22 0 0 92 -11 10 -11 -10zm11 10l-11 0 0 -10 11 10zm321 0l-321 0 0 -21 321 0 11 11 -11 10zm11 -10l0 10 -11 0 11 -10zm0 -87l0 87 -21 0 0 -87 3 -8 18 8zm-21 0l0 -5 3 -3 -3 8zm61 -29l-44 38 -14 -17 44 -38 1 0 13 17zm-14 -17l0 0 1 0 -1 0zm28 -58l21 0 0 0 0 5 0 4 -1 4 0 4 -1 4 -1 4 -1 3 -1 4 -2 3 -1 4 -1 3 -2 3 -1 2 -2 3 -2 3 -1 2 -2 2 -2 3 -1 2 -2 2 -1 1 -2 2 -1 1 -1 2 -2 1 -1 1 -1 1 0 0 -1 1 -1 1 0 0 0 0 -13 -17 0 0 0 0 0 0 0 -1 1 0 1 -1 1 -1 0 -1 1 -1 2 -1 1 -1 1 -1 1 -2 1 -2 2 -1 1 -2 1 -2 2 -2 1 -2 1 -2 1 -3 1 -2 1 -3 1 -2 1 -3 1 -3 1 -3 0 -3 1 -3 0 -3 1 -3 0 -4 0 0zm0 0l0 0 0 0 0 0zm21 -238l0 238 -21 0 0 -238 10 -11 11 11zm-11 -11l11 0 0 11 -11 -11zm-170 0l170 0 0 22 -170 0 0 -22z"/>
   </g>
   <path class="fil0" d="M899 169c-1,0 -2,0 -3,0l-556 0c-4,0 -7,0 -10,1 -24,-60 -82,-102 -151,-102 -66,0 -123,40 -148,97l148 0 0 129 -148 0c25,58 82,98 148,98 69,0 127,-42 151,-102 3,1 6,1 10,1l556 0c1,0 1,0 2,0 23,60 82,102 150,102 67,0 124,-40 149,-97l-149 0 0 -129 149 0c-25,-58 -82,-98 -149,-98 -67,0 -125,41 -149,100z"/>
   <g>
    <path class="fil1" d="M896 180l0 -22 0 0 0 0 0 0 0 0 0 0 1 0 0 0 0 0 0 0 1 0 0 0 -1 0 1 0 0 0 -1 0 1 0 0 0 0 0 0 0 0 0 0 0 1 0 0 0 0 0 0 0 0 0 0 0 0 0 0 0 1 0 -1 0 0 0 1 0 -2 22 0 0 0 0 -1 0 1 0 0 0 -1 0 0 0 0 0 0 0 0 0 0 0 0 0 0 0 0 0 0 0 0 0 0 0 0 0 -1 0 0 0 1 0 -1 0 0 0 1 0 0 0 -1 0 0 0 0 0 0 0 0 0 0 0 0 0 0 0zm-556 -22l556 0 0 22 -556 0 0 0 0 -22zm-20 16l20 -8 -12 -7 0 0 0 0 1 0 0 0 1 0 0 0 0 0 1 0 0 0 0 0 1 -1 0 0 0 0 1 0 0 0 0 0 1 0 0 0 1 0 0 0 0 0 1 0 0 0 1 0 0 0 0 0 1 0 0 0 0 0 1 0 0 0 1 0 0 22 -1 0 0 0 0 0 -1 0 0 0 0 0 0 0 0 0 -1 0 0 0 0 0 -1 0 0 0 0 0 0 0 0 0 -1 0 0 0 0 0 0 0 0 0 -1 0 0 0 0 0 0 0 -1 0 0 0 0 0 0 0 0 0 -1 0 0 0 -12 -6zm12 6l-9 2 -3 -8 12 6zm-153 -101l0 -22 0 0 7 0 7 0 7 1 6 1 7 1 6 2 6 1 7 2 6 2 6 2 6 3 5 3 6 2 6 4 5 3 5 3 6 4 5 4 4 4 5 4 5 5 4 4 4 5 4 5 4 5 4 5 3 5 4 6 3 5 3 6 2 6 3 6 -20 8 -2 -6 -3 -5 -2 -5 -3 -4 -3 -5 -3 -5 -3 -4 -4 -5 -3 -4 -4 -4 -4 -4 -4 -4 -4 -4 -4 -3 -4 -4 -5 -3 -4 -3 -5 -3 -5 -3 -5 -2 -5 -2 -5 -3 -6 -2 -5 -1 -5 -2 -6 -1 -6 -2 -5 -1 -6 0 -6 -1 -6 0 -6 0 0 0zm-148 75l0 22 -10 -15 2 -6 3 -5 3 -6 3 -5 4 -5 3 -5 4 -5 4 -5 4 -5 4 -4 4 -5 5 -4 5 -4 4 -4 5 -3 5 -4 6 -3 5 -3 5 -3 6 -3 6 -3 5 -2 6 -2 6 -2 6 -2 7 -2 6 -1 6 -1 7 -1 6 -1 7 0 6 0 0 22 -5 0 -6 0 -6 0 -6 1 -5 1 -6 1 -5 2 -5 1 -6 2 -5 2 -5 2 -5 2 -5 3 -4 2 -5 3 -5 3 -4 3 -4 3 -5 4 -4 3 -4 4 -3 4 -4 4 -4 4 -3 4 -3 4 -3 5 -3 4 -3 5 -3 5 -2 5 -2 5 -10 -16zm0 22l-17 0 7 -15 10 15zm148 0l-148 0 0 -22 148 0 11 11 -11 11zm0 -22l11 0 0 11 -11 -11zm-10 140l0 -129 21 0 0 129 -11 11 -10 -11zm21 0l0 11 -11 0 11 -11zm-159 -10l148 0 0 21 -148 0 -10 -6 10 -15zm-10 15l-7 -15 17 0 -10 15zm158 82l0 22 0 0 -6 0 -7 -1 -6 0 -7 -1 -6 -1 -6 -2 -7 -1 -6 -2 -6 -2 -6 -2 -5 -2 -6 -3 -6 -3 -5 -3 -5 -3 -6 -3 -5 -4 -5 -4 -4 -3 -5 -4 -5 -5 -4 -4 -4 -5 -4 -4 -4 -5 -4 -5 -3 -5 -4 -5 -3 -6 -3 -5 -3 -6 -2 -5 20 -9 2 5 2 5 3 5 3 4 3 5 3 4 3 5 3 4 4 4 4 4 3 4 4 3 4 4 5 3 4 4 4 3 5 3 5 2 4 3 5 2 5 3 5 2 5 2 6 1 5 2 5 1 6 2 5 0 6 1 6 1 6 0 5 0 0 0zm153 -102l-4 22 12 -7 -3 6 -2 6 -3 5 -3 6 -4 5 -3 6 -4 5 -4 5 -4 5 -4 4 -4 5 -5 4 -5 5 -4 4 -5 4 -6 3 -5 4 -5 3 -6 3 -6 3 -5 3 -6 2 -6 3 -6 2 -7 2 -6 1 -6 2 -7 1 -6 1 -7 0 -7 1 -7 0 0 -22 6 0 6 0 6 -1 6 -1 5 -1 6 -1 6 -1 5 -2 5 -2 6 -2 5 -2 5 -2 5 -3 5 -3 5 -2 4 -3 5 -4 4 -3 4 -4 4 -3 4 -4 4 -4 4 -4 3 -5 4 -4 3 -5 3 -4 3 -5 3 -5 2 -5 3 -5 2 -5 12 -7zm-12 7l3 -8 9 1 -12 7zm20 -6l0 22 0 0 -1 0 0 0 -1 0 0 0 0 0 -1 0 0 0 -1 0 0 0 0 0 -1 0 0 0 -1 0 0 0 0 -1 -1 0 0 0 0 0 -1 0 0 0 0 0 -1 0 0 0 0 0 -1 0 0 0 -1 0 0 0 0 0 -1 0 0 0 0 0 4 -22 0 0 1 1 0 0 0 0 0 0 0 0 1 0 0 0 0 0 0 0 0 0 1 0 0 0 0 0 0 0 1 0 0 0 0 0 1 0 0 0 0 0 0 0 0 0 1 0 0 0 0 0 0 0 1 0 0 0 0 0 0 0 1 0 0 0zm556 22l-556 0 0 -22 556 0 0 0 0 22zm12 -15l-20 8 10 7 0 0 -1 0 0 0 2 0 0 0 -2 0 1 0 0 0 -1 0 1 0 0 0 0 0 0 0 0 0 0 0 -1 0 1 0 0 0 0 0 0 0 0 0 0 0 -1 0 1 0 0 0 -2 0 2 0 0 0 -2 0 0 0 0 0 0 0 0 -22 0 0 0 0 0 0 -1 0 0 0 1 0 -1 0 0 0 2 0 -2 0 0 0 1 0 -1 0 0 0 1 0 1 0 -1 0 0 0 0 0 0 0 0 0 0 0 1 0 -1 0 0 0 1 0 -1 0 0 0 1 0 0 0 1 0 0 0 10 7zm-10 -7l7 0 3 7 -10 -7zm150 103l0 21 0 0 -7 0 -6 0 -7 -1 -7 -1 -6 -1 -6 -1 -7 -2 -6 -2 -6 -2 -6 -2 -6 -3 -6 -3 -6 -3 -5 -3 -6 -3 -5 -4 -5 -3 -5 -4 -5 -4 -5 -4 -4 -5 -5 -4 -4 -5 -4 -5 -4 -5 -3 -5 -4 -6 -3 -5 -3 -6 -3 -5 -3 -6 -2 -6 20 -8 2 5 2 5 3 5 2 5 3 5 3 5 4 4 3 4 4 5 3 4 4 4 4 4 4 3 4 4 5 3 4 4 5 3 5 3 5 2 5 3 5 2 5 3 5 2 5 1 6 2 5 2 6 1 6 1 6 1 5 0 6 0 6 1 0 0zm149 -76l0 -22 10 15 -3 6 -2 5 -3 6 -4 5 -3 5 -4 5 -3 5 -4 5 -4 5 -4 4 -5 5 -4 4 -5 4 -5 4 -5 4 -5 3 -5 3 -5 4 -6 3 -5 2 -6 3 -6 2 -6 3 -6 1 -6 2 -6 2 -6 1 -7 1 -6 1 -7 1 -6 0 -7 0 0 -21 6 -1 6 0 6 0 5 -1 6 -1 5 -1 6 -2 5 -1 5 -2 5 -2 5 -2 5 -2 5 -3 5 -2 5 -3 4 -3 5 -3 4 -3 4 -4 4 -3 4 -4 4 -4 4 -4 3 -4 4 -4 3 -4 3 -5 3 -4 3 -5 2 -5 3 -5 2 -5 10 16zm0 -22l16 0 -6 15 -10 -15zm-149 0l149 0 0 22 -149 0 -11 -11 11 -11zm0 22l-11 0 0 -11 11 11zm11 -140l0 129 -22 0 0 -129 11 -11 11 11zm-22 0l0 -11 11 0 -11 11zm160 10l-149 0 0 -21 149 0 10 6 -10 15zm10 -15l6 15 -16 0 10 -15zm-159 -82l0 -22 0 0 7 0 6 1 7 0 6 1 7 1 6 2 6 1 6 2 6 2 6 2 6 3 6 2 5 3 6 3 5 3 5 3 5 4 5 4 5 3 5 5 4 4 5 4 4 5 4 4 4 5 3 5 4 5 3 5 4 6 3 5 2 6 3 5 -20 9 -2 -5 -3 -5 -2 -5 -3 -4 -3 -5 -3 -4 -3 -5 -4 -4 -3 -4 -4 -4 -4 -4 -4 -3 -4 -4 -4 -3 -4 -4 -5 -3 -4 -3 -5 -2 -5 -3 -5 -2 -5 -3 -5 -2 -5 -2 -5 -1 -5 -2 -6 -1 -5 -1 -6 -1 -5 -1 -6 -1 -6 0 -6 0 0 0zm-150 100l2 -22 -11 7 2 -6 3 -6 3 -5 3 -6 3 -5 4 -5 4 -5 3 -5 5 -5 4 -5 4 -4 5 -4 4 -5 5 -3 5 -4 5 -4 6 -3 5 -4 5 -3 6 -2 6 -3 6 -3 6 -2 6 -2 6 -2 6 -1 6 -2 7 -1 6 -1 7 0 7 -1 6 0 0 22 -6 0 -5 0 -6 1 -6 1 -5 1 -6 1 -6 1 -5 2 -5 2 -5 1 -6 3 -5 2 -4 2 -5 3 -5 3 -5 3 -4 3 -4 3 -5 4 -4 4 -4 3 -4 4 -3 4 -4 4 -3 5 -3 4 -4 5 -2 4 -3 5 -3 5 -2 5 -2 5 -11 7zm11 -7l-3 7 -8 0 11 -7z"/>
   </g>
   <path class="fil2" d="M858 215c8,0 16,7 16,16l0 0c0,8 -8,15 -16,15l-488 0c-9,0 -16,-7 -16,-15l0 0c0,-9 7,-16 16,-16l488 0z"/>
   <g>
    <path class="fil1" d="M884 231l-21 0 0 0 0 -1 0 0 0 0 0 0 0 -1 -1 0 0 0 0 0 0 -1 0 0 0 0 0 0 0 -1 -1 0 0 0 0 0 0 0 0 0 0 -1 -1 0 0 0 0 0 0 0 0 0 -1 0 0 0 0 0 0 -1 -1 0 0 0 0 0 0 0 0 -21 1 0 1 0 2 0 1 0 1 1 2 0 1 0 1 1 1 0 1 1 1 1 1 0 2 1 1 1 0 1 1 1 1 1 1 1 1 1 1 1 0 1 1 1 1 1 0 1 1 1 0 2 0 1 1 1 0 1 0 2 0 1 0 2 0 0zm-10 0l0 0 0 0 0 0 10 0 -10 0zm-16 26l0 -21 0 0 0 0 0 0 0 0 1 0 0 0 0 -1 0 0 1 0 0 0 0 0 0 0 0 0 1 0 0 0 0 -1 0 0 0 0 1 0 0 0 0 -1 0 0 0 0 0 0 0 0 0 -1 0 0 1 0 0 0 0 -1 0 0 0 0 0 0 21 0 0 1 0 1 0 2 0 1 -1 1 0 1 0 2 -1 1 0 1 -1 1 -1 1 0 2 -1 1 -1 1 -1 1 -1 0 -1 1 0 1 -1 1 -2 1 -1 0 -1 1 -1 1 -1 0 -1 1 -1 0 -2 0 -1 1 -1 0 -2 0 -1 0 -1 0 0 0zm-488 -21l488 0 0 21 -488 0 0 0 0 -21zm-27 -5l22 0 0 0 0 0 0 0 0 0 0 1 0 0 0 0 0 0 0 1 0 0 1 0 0 0 0 0 0 1 0 0 0 0 0 0 1 0 0 1 0 0 0 0 0 0 1 0 0 0 0 0 0 0 1 0 0 1 0 0 0 0 1 0 0 0 0 0 0 21 -1 0 -2 0 -1 0 -1 0 -2 -1 -1 0 -1 0 -1 -1 -1 0 -2 -1 -1 -1 -1 0 -1 -1 -1 -1 -1 -1 -1 -1 -1 0 -1 -1 0 -1 -1 -2 -1 -1 0 -1 -1 -1 -1 -1 0 -1 0 -1 -1 -2 0 -1 0 -1 -1 -2 0 -1 0 -1 0 0zm11 0l0 0 0 0 0 0 -11 0 11 0zm16 -27l0 21 0 0 0 0 0 0 -1 0 0 0 0 1 0 0 -1 0 0 0 0 0 0 0 -1 0 0 0 0 0 0 1 0 0 -1 0 0 0 0 0 0 0 0 1 0 0 0 0 -1 0 0 1 0 0 0 0 0 0 0 0 0 1 0 0 0 0 0 1 -22 0 0 -2 0 -1 1 -2 0 -1 0 -1 1 -1 0 -2 0 -1 1 -1 1 -1 0 -1 1 -1 1 -1 0 -1 1 -1 1 -1 1 -1 1 -1 1 -1 1 -1 1 0 1 -1 2 -1 1 0 1 -1 1 0 1 0 2 -1 1 0 1 0 2 0 1 0 0 0zm488 21l-488 0 0 -21 488 0 0 0 0 21z"/>
   </g>
   <g>
    <polygon class="fil1" points="314,232 293,232 293,226 292,221 292,215 291,210 290,205 288,199 287,194 285,189 283,185 281,180 278,175 276,171 273,167 270,162 266,158 263,155 259,151 255,147 251,144 247,141 243,138 238,135 234,133 229,131 224,129 219,127 214,125 209,124 204,123 198,122 193,122 187,121 188,100 194,100 201,101 207,102 214,103 220,105 226,106 232,109 238,111 244,114 249,117 254,120 260,123 265,127 269,131 274,135 278,140 283,144 287,149 290,154 294,159 297,165 300,170 303,176 305,182 307,187 309,194 311,200 312,206 313,212 314,219 314,226 "/>
   </g>
   <g>
    <polygon class="fil1" points="945,229 966,229 966,235 967,240 967,246 968,251 969,256 970,262 972,267 974,272 976,276 978,281 981,286 983,290 986,294 989,299 993,303 996,306 1000,310 1004,314 1008,317 1012,320 1016,323 1021,326 1025,328 1030,330 1035,332 1040,334 1045,336 1050,337 1055,338 1061,339 1066,340 1072,340 1071,361 1065,361 1058,360 1052,359 1045,358 1039,357 1033,355 1027,352 1021,350 1015,347 1010,344 1004,341 999,338 994,334 990,330 985,326 981,321 976,317 972,312 969,307 965,302 962,296 959,291 956,285 954,280 952,274 950,268 948,261 947,255 946,249 945,242 945,236 "/>
   </g>
   <path class="fil2" d="M576 229c0,27 -21,49 -48,49l0 0c-27,0 -49,-22 -49,-49l0 -91c0,-27 22,-49 49,-49l0 0c27,0 48,22 48,49l0 91z"/>
   <g>
    <path class="fil1" d="M528 289l0 -22 0 0 2 0 2 0 1 0 2 -1 2 0 2 -1 2 0 1 -1 2 -1 2 -1 1 -1 2 0 1 -2 2 -1 1 -1 2 -1 1 -1 1 -2 1 -1 1 -2 1 -1 1 -2 1 -2 1 -1 0 -2 1 -2 0 -1 1 -2 0 -2 0 -2 1 -2 0 -2 21 0 0 3 0 3 0 3 -1 3 -1 3 0 3 -1 2 -1 3 -2 3 -1 2 -1 3 -2 2 -2 3 -1 2 -2 2 -2 2 -2 2 -2 2 -3 2 -2 1 -2 2 -3 1 -2 2 -3 1 -3 1 -3 1 -2 1 -3 0 -3 1 -3 0 -3 0 -3 1 0 0zm0 -11l0 0 0 0 0 0 0 11 0 -11zm-60 -49l22 0 0 0 0 2 0 2 0 2 0 2 1 1 0 2 1 2 1 2 0 1 1 2 1 2 1 1 1 2 1 1 2 2 1 1 1 1 2 1 1 1 1 1 2 1 2 1 1 1 2 1 2 1 1 0 2 1 2 0 2 1 2 0 2 0 2 0 0 22 -3 -1 -3 0 -3 0 -3 -1 -3 0 -3 -1 -3 -1 -2 -1 -3 -1 -3 -2 -2 -1 -3 -2 -2 -1 -2 -2 -2 -2 -2 -2 -2 -2 -2 -2 -2 -2 -2 -3 -1 -2 -2 -3 -1 -2 -1 -3 -1 -3 -1 -2 -1 -3 -1 -3 0 -3 -1 -3 0 -3 0 -3 0 0zm22 -91l0 91 -22 0 0 -91 0 0 22 0zm38 -60l0 22 0 0 -2 0 -2 0 -2 0 -2 1 -2 0 -2 0 -1 1 -2 1 -2 1 -1 0 -2 1 -2 1 -1 1 -1 1 -2 2 -1 1 -1 1 -2 2 -1 1 -1 2 -1 1 -1 2 -1 1 0 2 -1 2 -1 1 0 2 -1 2 0 2 0 2 0 2 0 2 -22 0 0 -3 0 -3 1 -3 0 -3 1 -3 1 -3 1 -3 1 -2 1 -3 1 -3 2 -2 1 -3 2 -2 2 -2 2 -2 2 -2 2 -2 2 -2 2 -2 2 -2 3 -1 2 -2 3 -1 3 -1 2 -1 3 -1 3 -1 3 -1 3 0 3 0 3 -1 3 0 0 0zm0 11l0 0 0 0 0 0 0 -11 0 11zm59 49l-21 0 0 0 0 -2 -1 -2 0 -2 0 -2 -1 -2 0 -2 -1 -1 0 -2 -1 -2 -1 -1 -1 -2 -1 -1 -1 -2 -1 -1 -1 -2 -1 -1 -2 -1 -1 -2 -2 -1 -1 -1 -2 -1 -1 -1 -2 0 -2 -1 -1 -1 -2 -1 -2 0 -2 0 -2 -1 -1 0 -2 0 -2 0 0 -22 3 0 3 1 3 0 3 0 3 1 2 1 3 1 3 1 3 1 2 1 3 2 2 1 2 2 3 2 2 2 2 2 2 2 2 2 1 2 2 2 2 3 1 2 1 3 2 3 1 2 1 3 0 3 1 3 1 3 0 3 0 3 0 3 0 0zm-21 91l0 -91 21 0 0 91 0 0 -21 0z"/>
   </g>
   <path class="fil2" d="M680 222c0,27 -21,49 -48,49l0 0c-27,0 -49,-22 -49,-49l0 -106c0,-26 22,-48 49,-48l0 0c27,0 48,22 48,48l0 106z"/>
   <g>
    <path class="fil1" d="M632 282l0 -22 0 0 2 0 2 0 1 0 2 -1 2 0 2 -1 2 0 1 -1 2 -1 2 -1 1 0 2 -1 1 -1 2 -2 1 -1 2 -1 1 -1 1 -2 1 -1 1 -2 1 -1 1 -2 1 -1 1 -2 0 -2 1 -2 0 -1 1 -2 0 -2 0 -2 1 -2 0 -2 21 0 0 3 0 3 0 3 -1 3 -1 3 0 3 -1 3 -1 2 -2 3 -1 3 -1 2 -2 2 -2 3 -1 2 -2 2 -2 2 -2 2 -2 2 -3 2 -2 1 -2 2 -3 1 -2 2 -3 1 -3 1 -3 1 -2 1 -3 0 -3 1 -3 0 -3 1 -3 0 0 0zm0 -11l0 0 0 0 0 0 0 11 0 -11zm-60 -49l22 0 0 0 0 2 0 2 0 2 0 2 1 2 0 1 1 2 1 2 0 2 1 1 1 2 1 1 1 2 1 1 2 2 1 1 1 1 2 1 1 2 1 1 2 1 2 0 1 1 2 1 2 1 1 0 2 1 2 0 2 1 2 0 2 0 2 0 0 22 -3 0 -3 -1 -3 0 -3 -1 -3 0 -3 -1 -3 -1 -2 -1 -3 -1 -3 -2 -2 -1 -3 -2 -2 -1 -2 -2 -2 -2 -2 -2 -2 -2 -2 -2 -2 -2 -2 -3 -1 -2 -2 -2 -1 -3 -1 -3 -1 -2 -1 -3 -1 -3 -1 -3 0 -3 -1 -3 0 -3 0 -3 0 0zm22 -106l0 106 -22 0 0 -106 0 0 22 0zm38 -59l0 22 0 0 -2 0 -2 0 -2 0 -2 0 -2 1 -2 0 -1 1 -2 1 -2 0 -1 1 -2 1 -2 1 -1 1 -1 1 -2 1 -1 2 -1 1 -2 1 -1 2 -1 1 -1 2 -1 1 -1 2 0 2 -1 1 -1 2 0 2 -1 2 0 2 0 2 0 2 0 1 -22 0 0 -3 0 -3 1 -3 0 -3 1 -2 1 -3 1 -3 1 -3 1 -2 1 -3 2 -2 1 -3 2 -2 2 -2 2 -3 2 -2 2 -2 2 -1 2 -2 2 -2 3 -1 2 -2 3 -1 3 -1 2 -1 3 -1 3 -1 3 -1 3 0 3 -1 3 0 3 0 0 0zm0 11l0 0 0 0 0 0 0 -11 0 11zm59 48l-21 0 0 0 0 -1 -1 -2 0 -2 0 -2 -1 -2 0 -2 -1 -2 0 -1 -1 -2 -1 -2 -1 -1 -1 -2 -1 -1 -1 -2 -1 -1 -1 -1 -2 -2 -1 -1 -2 -1 -1 -1 -2 -1 -1 -1 -2 -1 -2 0 -1 -1 -2 -1 -2 0 -2 -1 -2 0 -1 0 -2 0 -2 0 0 -22 3 0 3 0 3 1 3 0 3 1 2 1 3 1 3 1 2 1 3 1 3 2 2 1 2 2 3 2 2 1 2 2 2 2 2 3 1 2 2 2 2 3 1 2 1 3 2 2 1 3 1 3 0 3 1 2 1 3 0 3 0 3 0 3 0 0zm-21 106l0 -106 21 0 0 106 0 0 -21 0z"/>
   </g>
   <path class="fil2" d="M778 205c0,27 -22,48 -49,48l0 0c-27,0 -49,-21 -49,-48l0 -67c0,-27 22,-49 49,-49l0 0c27,0 49,22 49,49l0 67z"/>
   <g>
    <path class="fil1" d="M729 264l0 -21 0 0 2 0 2 -1 2 0 2 0 2 -1 1 0 2 -1 2 0 2 -1 1 -1 2 -1 1 -1 2 -1 1 -1 2 -1 1 -2 1 -1 1 -1 2 -2 1 -1 1 -2 1 -1 0 -2 1 -2 1 -1 0 -2 1 -2 0 -2 1 -2 0 -1 0 -2 0 -2 22 0 0 3 -1 3 0 3 0 3 -1 3 -1 2 -1 3 -1 3 -1 2 -1 3 -2 3 -1 2 -2 2 -2 3 -2 2 -2 2 -2 2 -2 2 -2 1 -3 2 -2 2 -2 1 -3 1 -3 1 -2 2 -3 0 -3 1 -3 1 -3 0 -3 1 -3 0 -3 0 0 0zm0 -11l0 0 0 0 0 0 0 11 0 -11zm-59 -48l21 0 0 0 0 2 0 2 1 1 0 2 0 2 1 2 1 2 0 1 1 2 1 2 1 1 1 2 1 1 1 2 1 1 1 1 2 2 1 1 1 1 2 1 2 1 1 1 2 1 1 1 2 0 2 1 2 0 2 1 1 0 2 0 2 1 2 0 0 21 -3 0 -3 0 -3 -1 -3 0 -3 -1 -3 -1 -2 0 -3 -2 -3 -1 -2 -1 -3 -1 -2 -2 -2 -2 -3 -1 -2 -2 -2 -2 -2 -2 -2 -2 -2 -3 -1 -2 -2 -2 -1 -3 -1 -3 -2 -2 -1 -3 -1 -3 0 -2 -1 -3 -1 -3 0 -3 0 -3 0 -3 0 0zm21 -67l0 67 -21 0 0 -67 0 0 21 0zm38 -60l0 22 0 0 -2 0 -2 0 -2 0 -1 1 -2 0 -2 0 -2 1 -2 1 -1 1 -2 0 -1 1 -2 1 -2 1 -1 1 -1 2 -2 1 -1 1 -1 2 -1 1 -1 2 -1 1 -1 2 -1 1 -1 2 0 2 -1 1 -1 2 0 2 0 2 -1 2 0 2 0 2 -21 0 0 -3 0 -3 0 -3 1 -3 1 -3 0 -3 1 -3 1 -2 2 -3 1 -3 1 -2 2 -3 1 -2 2 -2 2 -2 2 -2 2 -2 2 -2 3 -2 2 -2 2 -1 3 -2 2 -1 3 -1 3 -1 2 -1 3 -1 3 -1 3 0 3 0 3 -1 3 0 0 0zm0 11l0 0 0 0 0 0 0 -11 0 11zm60 49l-22 0 0 0 0 -2 0 -2 0 -2 -1 -2 0 -2 -1 -2 0 -1 -1 -2 -1 -2 0 -1 -1 -2 -1 -1 -1 -2 -2 -1 -1 -2 -1 -1 -1 -1 -2 -2 -1 -1 -2 -1 -1 -1 -2 -1 -1 0 -2 -1 -2 -1 -2 -1 -1 0 -2 0 -2 -1 -2 0 -2 0 -2 0 0 -22 3 0 3 1 3 0 3 0 3 1 3 1 3 1 2 1 3 1 3 1 2 2 2 1 3 2 2 2 2 2 2 2 2 2 2 2 2 2 2 2 1 3 2 2 1 3 1 3 1 2 1 3 1 3 1 3 0 3 0 3 1 3 0 3 0 0zm-22 67l0 -67 22 0 0 67 0 0 -22 0z"/>
   </g>
   <path class="fil2" d="M875 205c0,27 -21,49 -48,49l0 0c-27,0 -49,-22 -49,-49l0 -46c0,-27 22,-49 49,-49l0 0c27,0 48,22 48,49l0 46z"/>
   <g>
    <path class="fil1" d="M827 264l0 -21 0 0 2 0 2 0 1 -1 2 0 2 0 2 -1 2 -1 1 0 2 -1 2 -1 1 -1 2 -1 1 -1 2 -1 1 -1 1 -1 2 -2 1 -1 1 -2 1 -1 1 -2 1 -1 1 -2 1 -1 0 -2 1 -2 0 -2 1 -2 0 -1 0 -2 1 -2 0 -2 21 0 0 3 0 3 -1 3 0 3 -1 3 0 2 -1 3 -2 3 -1 3 -1 2 -1 3 -2 2 -2 2 -1 3 -2 2 -2 2 -2 2 -2 2 -3 1 -2 2 -2 2 -3 1 -2 1 -3 2 -3 1 -3 1 -2 0 -3 1 -3 1 -3 0 -3 0 -3 0 0 0zm0 -10l0 0 0 0 0 0 0 10 0 -10zm-60 -49l22 0 0 0 0 2 0 2 0 2 0 1 1 2 0 2 1 2 1 2 0 1 1 2 1 1 1 2 1 1 1 2 2 1 1 2 1 1 2 1 1 1 1 1 2 1 2 1 1 1 2 1 2 0 1 1 2 1 2 0 2 0 2 1 2 0 2 0 0 21 -3 0 -3 0 -3 0 -3 -1 -3 -1 -3 0 -3 -1 -3 -1 -2 -2 -3 -1 -2 -1 -3 -2 -2 -2 -2 -1 -2 -2 -2 -2 -2 -2 -2 -2 -2 -3 -2 -2 -1 -2 -2 -3 -1 -2 -1 -3 -1 -3 -1 -3 -1 -2 -1 -3 0 -3 -1 -3 0 -3 0 -3 0 0zm22 -46l0 46 -22 0 0 -46 0 0 22 0zm38 -59l0 21 0 0 -2 0 -2 0 -2 1 -2 0 -2 0 -2 1 -1 1 -2 0 -2 1 -1 1 -2 1 -2 1 -1 1 -1 1 -2 1 -1 1 -1 2 -2 1 -1 1 -1 2 -1 2 -1 1 -1 2 0 1 -1 2 -1 2 0 2 -1 2 0 1 0 2 0 2 0 2 -22 0 0 -3 0 -3 1 -3 0 -3 1 -3 1 -3 1 -2 1 -3 1 -3 1 -2 2 -3 1 -2 2 -2 2 -3 2 -2 2 -2 2 -2 2 -2 2 -2 2 -1 3 -2 2 -1 3 -1 3 -2 2 -1 3 -1 3 0 3 -1 3 -1 3 0 3 0 3 0 0 0zm0 10l0 0 0 0 0 0 0 -10 0 10zm59 49l-21 0 0 0 0 -2 -1 -2 0 -2 0 -1 -1 -2 0 -2 -1 -2 0 -2 -1 -1 -1 -2 -1 -1 -1 -2 -1 -1 -1 -2 -1 -1 -2 -2 -1 -1 -1 -1 -2 -1 -1 -1 -2 -1 -1 -1 -2 -1 -2 -1 -1 0 -2 -1 -2 -1 -2 0 -2 0 -1 -1 -2 0 -2 0 0 -21 3 0 3 0 3 0 3 1 3 1 2 0 3 1 3 1 2 2 3 1 3 1 2 2 2 1 3 2 2 2 2 2 2 2 2 2 1 3 2 2 2 2 1 3 1 2 1 3 2 3 1 3 0 2 1 3 0 3 1 3 0 3 0 3 0 0zm-21 46l0 -46 21 0 0 46 0 0 -21 0z"/>
   </g>
   <path class="fil2" d="M579 458c18,-147 -104,-180 -104,-180l141 0c64,-14 64,-95 64,-95l-222 0 -75 63c0,0 -40,45 -27,105 0,0 30,99 123,191l100 -84z"/>
   <g>
    <path class="fil1" d="M475 267l0 22 2 -22 1 1 1 0 2 1 3 0 3 1 3 2 4 2 4 2 5 2 5 3 5 3 5 3 6 4 6 4 5 5 6 5 6 6 5 6 6 6 5 7 5 8 4 8 4 9 4 9 4 10 2 11 3 11 1 11 1 12 0 13 0 14 -2 14 -21 -3 1 -13 1 -12 0 -12 -1 -11 -2 -10 -2 -10 -2 -9 -3 -8 -3 -8 -4 -8 -4 -7 -4 -6 -5 -6 -4 -6 -5 -5 -5 -5 -5 -5 -5 -4 -5 -4 -5 -3 -4 -3 -5 -3 -4 -2 -4 -2 -4 -2 -3 -1 -3 -1 -3 -1 -2 -1 -1 -1 -1 0 0 0 3 -21zm-3 21c-6,-1 -9,-7 -8,-13 2,-6 8,-9 13,-8l-5 21zm144 1l-141 0 0 -22 141 0 3 21 -3 1zm0 -22c6,0 11,5 11,11 0,6 -5,11 -11,11l0 -22zm64 -73l0 -21 11 10 0 1 0 1 0 1 0 1 0 2 0 3 0 3 -1 3 0 3 -1 3 -1 4 0 4 -1 4 -2 4 -1 5 -1 4 -2 5 -2 4 -2 5 -3 4 -3 5 -3 4 -3 4 -4 5 -4 4 -4 3 -5 4 -5 3 -6 3 -6 3 -6 2 -6 1 -5 -21 5 -1 5 -2 4 -2 4 -2 4 -2 3 -3 4 -2 3 -3 2 -3 3 -4 2 -3 2 -4 2 -3 2 -4 2 -4 1 -3 2 -4 1 -4 1 -3 1 -4 0 -3 1 -3 0 -3 1 -3 0 -3 0 -2 0 -2 1 -2 0 -1 0 -1 0 -1 0 0 10 11zm-10 -11c0,-6 4,-10 10,-10 6,0 11,4 11,10l-21 0zm-212 -10l222 0 0 21 -222 0 -7 -19 7 -2zm0 21c-6,0 -11,-5 -11,-11 0,-6 5,-10 11,-10l0 21zm-82 44l75 -63 14 17 -75 63 -15 -16 1 -1zm14 17c-4,4 -11,3 -15,-2 -4,-4 -3,-11 1,-15l14 17zm-24 92l-21 7 0 -1 -1 -6 -1 -6 0 -6 -1 -6 0 -6 1 -5 0 -5 1 -6 1 -5 1 -5 1 -4 1 -5 2 -4 1 -5 2 -4 2 -3 2 -4 1 -4 2 -3 2 -3 1 -3 2 -2 2 -3 1 -2 2 -2 1 -2 1 -1 1 -1 1 -1 1 -1 0 -1 0 0 16 15 0 0 0 0 -1 1 0 0 -1 1 -1 1 -1 2 -1 2 -1 1 -2 2 -1 3 -2 2 -1 3 -2 2 -1 3 -2 4 -1 3 -1 3 -2 4 -1 4 -1 3 -1 4 -1 4 -1 5 0 4 -1 4 0 5 0 5 0 4 1 5 0 5 1 5 0 -1zm0 1c2,6 -2,12 -8,13 -6,1 -11,-2 -13,-8l21 -5zm121 186l-16 15 -8 -9 -9 -8 -8 -9 -7 -9 -7 -9 -7 -9 -7 -8 -6 -9 -6 -8 -6 -9 -5 -8 -5 -8 -5 -7 -4 -8 -4 -7 -4 -7 -3 -7 -4 -7 -3 -6 -2 -6 -3 -5 -2 -5 -2 -5 -2 -4 -2 -4 -1 -4 -1 -3 -1 -2 -1 -2 0 -2 0 -1 -1 0 21 -7 0 1 0 0 1 2 0 1 1 3 1 3 2 3 1 3 2 5 2 4 2 5 2 5 3 6 3 6 3 6 3 7 4 6 4 7 4 8 4 7 5 8 5 8 6 8 5 8 6 8 7 8 6 9 7 8 8 8 7 9 8 8 9 9z"/>
   </g>
   <path class="fil2" d="M794 706c0,15 -12,26 -26,26 -14,0 -26,-11 -26,-26 0,-14 12,-26 26,-26 14,0 26,12 26,26z"/>
   <g>
    <path class="fil1" d="M768 743l0 -22 0 0 1 0 1 0 0 0 1 0 1 0 1 0 0 0 1 -1 1 0 0 0 1 -1 1 0 0 -1 1 0 0 -1 1 0 0 -1 1 0 0 -1 1 0 0 -1 0 -1 1 0 0 -1 0 0 1 -1 0 -1 0 -1 0 0 0 -1 0 -1 0 -1 22 0 0 2 0 2 -1 2 0 2 0 1 -1 2 0 2 -1 2 -1 1 -1 2 0 1 -1 2 -1 1 -2 2 -1 1 -1 1 -1 2 -1 1 -2 1 -1 1 -2 1 -1 1 -2 0 -2 1 -1 1 -2 0 -2 1 -1 0 -2 1 -2 0 -2 0 -2 0 0 0zm-36 -37l21 0 0 0 0 1 0 1 0 1 0 0 1 1 0 1 0 1 0 0 1 1 0 1 0 0 1 1 0 0 1 1 0 0 0 1 1 1 1 0 0 0 1 1 0 0 1 1 1 0 0 0 1 1 1 0 0 0 1 0 1 0 1 0 0 0 1 0 0 22 -2 0 -2 0 -1 0 -2 -1 -2 0 -2 -1 -1 0 -2 -1 -2 -1 -1 0 -2 -1 -1 -1 -2 -1 -1 -1 -1 -2 -2 -1 -1 -1 -1 -1 -1 -2 -1 -1 -1 -2 -1 -1 -1 -2 -1 -1 0 -2 -1 -2 0 -2 -1 -1 0 -2 0 -2 0 -2 0 -2 0 0zm36 -36l0 21 0 0 -1 0 0 0 -1 0 -1 1 -1 0 0 0 -1 0 -1 0 0 1 -1 0 -1 0 0 1 -1 0 0 1 -1 0 -1 1 0 0 0 1 -1 0 0 1 -1 0 0 1 0 1 -1 0 0 1 0 1 0 1 -1 0 0 1 0 1 0 1 0 0 -21 0 0 -2 0 -1 0 -2 0 -2 1 -2 0 -2 1 -1 0 -2 1 -2 1 -1 1 -2 1 -1 1 -2 1 -1 1 -1 1 -2 2 -1 1 -1 1 -1 2 -1 1 -1 2 -1 1 -1 2 0 2 -1 1 -1 2 0 2 -1 2 0 1 0 2 0 2 0 0 0zm37 36l-22 0 0 0 0 0 0 -1 0 -1 0 -1 0 0 0 -1 -1 -1 0 -1 0 0 -1 -1 0 0 0 -1 -1 -1 0 0 -1 -1 0 0 -1 -1 0 0 -1 -1 0 0 -1 -1 -1 0 0 0 -1 -1 -1 0 0 0 -1 0 -1 0 -1 -1 0 0 -1 0 -1 0 0 -21 2 0 2 0 2 0 2 0 1 1 2 0 2 1 1 1 2 0 2 1 1 1 2 1 1 1 2 1 1 1 1 1 1 2 1 1 2 1 1 2 1 1 0 2 1 1 1 2 1 2 0 1 1 2 0 2 0 2 1 2 0 1 0 2 0 0z"/>
   </g>
  </g>
 </g>
</svg>
