<?xml version="1.0" encoding="UTF-8"?>
<!DOCTYPE svg PUBLIC "-//W3C//DTD SVG 1.1//EN" "http://www.w3.org/Graphics/SVG/1.1/DTD/svg11.dtd">
<!-- Creator: CorelDRAW X7 -->
<svg xmlns="http://www.w3.org/2000/svg" xml:space="preserve" width="84.6666mm" height="84.6666mm" version="1.1" style="shape-rendering:geometricPrecision; text-rendering:geometricPrecision; image-rendering:optimizeQuality; fill-rule:evenodd; clip-rule:evenodd"
viewBox="0 0 8467 8467"
 xmlns:xlink="http://www.w3.org/1999/xlink">
 <defs>
  <style type="text/css">
   <![CDATA[
    .fil0 {fill:#27358C}
    .fil2 {fill:#72CBF3}
    .fil1 {fill:white}
   ]]>
  </style>
 </defs>
 <g id="Camada_x0020_1">
  <metadata id="CorelCorpID_0Corel-Layer"/>
  <g id="_2132872783568">
   <path class="fil0" d="M2162 3376l528 0 0 373 -532 1c250,593 883,468 1079,128 32,-56 25,-56 57,-63 -24,260 208,612 376,781 85,88 58,122 58,325l-100 6 -4 573 1384 3 0 -575 -90 -3 1 -256c84,-40 229,-178 252,-299 22,-116 6,-419 6,-554 32,12 29,24 49,57 291,490 982,305 1081,-119l-530 0 0 -373 531 0c-57,-204 -271,-396 -526,-411 -417,-27 -561,317 -596,342 -47,-79 -10,-121 -117,-176 -111,-57 -173,-7 -244,29 -77,-147 -180,-156 -335,-77 -47,-64 -87,-126 -199,-124 -134,2 -147,75 -199,140 -69,-52 -145,-102 -263,-38 -88,47 -93,115 -103,245l-453 2c-85,-186 -293,-368 -586,-348 -246,16 -489,211 -525,411z"/>
   <g>
    <path class="fil1" d="M3803 4671l0 255 1040 0 0 -255c0,-86 260,-145 260,-385l0 -473 -1126 0c36,61 93,84 143,222 31,87 57,229 22,319l-50 -1 -14 -54c-10,-173 -3,-329 -218,-477 -126,-85 -151,-22 -140,-120 77,-25 353,-9 460,-10 159,-1 222,-101 243,-253 -201,0 -489,-17 -679,0 -66,6 -133,81 -199,138 -68,59 -114,84 -155,194 -69,184 54,377 131,502 81,132 127,183 219,291 32,37 63,48 63,107z"/>
    <path class="fil2" d="M5177 3392c0,94 12,225 -58,256 -115,51 -154,25 -260,11 -119,-16 -180,37 -279,15 -138,-32 -119,-3 -216,62l872 2c26,36 41,81 67,120 79,118 212,209 368,230 236,30 457,-113 518,-258l-487 -2 1 -522 486 0c-136,-301 -672,-390 -898,-9 -56,94 -4,82 -114,95z"/>
    <path class="fil2" d="M2279 3301l486 0 0 523 -488 0c123,289 720,441 949,-93l97 8 32 -75 -33 -38c-57,-69 -12,-142 61,-152 142,-22 182,25 257,-82l-419 -2c-137,-460 -805,-434 -942,-89z"/>
    <polygon class="fil2" points="3698,5425 4933,5429 4933,5003 3702,5000 "/>
    <path class="fil1" d="M4579 3128c-108,60 -78,160 -78,301 1,162 101,207 190,163 100,-49 73,-180 74,-301 1,-189 -129,-195 -186,-163z"/>
    <path class="fil1" d="M4839 3353l0 88c0,232 264,212 264,12l0 -112c0,-203 -264,-217 -264,12z"/>
    <path class="fil1" d="M4165 3364l259 0c6,-130 33,-318 -121,-325 -163,-6 -147,186 -138,325z"/>
    <path class="fil1" d="M3805 3364l260 0c6,-117 6,-244 -122,-251 -140,-6 -146,127 -138,251z"/>
   </g>
  </g>
 </g>
</svg>
