<?xml version="1.0" encoding="UTF-8"?>
<!DOCTYPE svg PUBLIC "-//W3C//DTD SVG 1.1//EN" "http://www.w3.org/Graphics/SVG/1.1/DTD/svg11.dtd">
<!-- Creator: CorelDRAW X7 -->
<svg xmlns="http://www.w3.org/2000/svg" xml:space="preserve" width="42.3332mm" height="42.3332mm" version="1.1" style="shape-rendering:geometricPrecision; text-rendering:geometricPrecision; image-rendering:optimizeQuality; fill-rule:evenodd; clip-rule:evenodd"
viewBox="0 0 4233 4233"
 xmlns:xlink="http://www.w3.org/1999/xlink">
 <defs>
  <style type="text/css">
   <![CDATA[
    .fil0 {fill:#1704C2}
    .fil1 {fill:white}
   ]]>
  </style>
 </defs>
 <g id="Camada_x0020_1">
  <metadata id="CorelCorpID_0Corel-Layer"/>
  <g id="_2110730504752">
   <path class="fil0" d="M2151 2578c51,64 26,147 -41,175 -59,26 -134,52 -196,75 -123,45 -312,155 -346,-36l583 -214zm-221 -492c22,26 74,103 87,140l-84 30 3 212c31,5 159,-64 195,47 -23,20 -77,34 -111,47 -60,20 -55,30 -118,20 -19,44 -32,34 -81,52 -59,22 -241,97 -277,98 -24,-119 54,-103 73,-150 0,-94 -15,-301 0,-382l313 -114zm296 -308c-262,243 -24,136 -434,293 -77,30 -196,87 -284,78 -178,-18 -309,-242 -189,-432 42,-68 128,-97 226,-130 90,-30 177,-66 266,-98 78,-27 220,7 311,14 21,27 95,231 104,275zm40 -317c57,-25 105,-47 180,-37 103,15 84,7 117,94 16,43 13,47 -11,77 -65,80 -81,89 -190,125l-25 -32 -68 23c-22,-27 -61,-136 -70,-182l68 -26 -1 -42zm-2266 2772l4233 0 0 -4233 -4233 0 0 4233z"/>
   <path class="fil1" d="M2226 1778c-9,-44 -83,-248 -104,-275 -91,-7 -233,-41 -311,-14 -89,32 -176,68 -266,98 -98,33 -184,62 -226,130 -120,190 11,414 189,432 88,9 207,-48 284,-78 410,-157 172,-50 434,-293z"/>
   <path class="fil1" d="M1617 2200c-15,81 0,288 0,382 -19,47 -97,31 -73,150 36,-1 218,-76 277,-98 49,-18 62,-8 81,-52 63,10 58,0 118,-20 34,-13 88,-27 111,-47 -36,-111 -164,-42 -195,-47l-3 -212 84 -30c-13,-37 -65,-114 -87,-140l-313 114z"/>
   <path class="fil1" d="M1568 2792c34,191 223,81 346,36 62,-23 137,-49 196,-75 67,-28 92,-111 41,-175l-583 214z"/>
   <path class="fil1" d="M2266 1461l1 42 -68 26c9,46 48,155 70,182l68 -23 25 32c109,-36 125,-45 190,-125 24,-30 27,-34 11,-77 -33,-87 -14,-79 -117,-94 -75,-10 -123,12 -180,37z"/>
  </g>
 </g>
</svg>
