<?xml version="1.0" encoding="UTF-8"?>
<!DOCTYPE svg PUBLIC "-//W3C//DTD SVG 1.1//EN" "http://www.w3.org/Graphics/SVG/1.1/DTD/svg11.dtd">
<!-- Creator: CorelDRAW X7 -->
<svg xmlns="http://www.w3.org/2000/svg" xml:space="preserve" width="84.6666mm" height="84.6666mm" version="1.1" style="shape-rendering:geometricPrecision; text-rendering:geometricPrecision; image-rendering:optimizeQuality; fill-rule:evenodd; clip-rule:evenodd"
viewBox="0 0 8467 8467"
 xmlns:xlink="http://www.w3.org/1999/xlink">
 <defs>
  <style type="text/css">
   <![CDATA[
    .fil0 {fill:#27358C}
    .fil2 {fill:#72CBF3}
    .fil3 {fill:#ACAFD3}
    .fil1 {fill:#EEEEF6}
   ]]>
  </style>
 </defs>
 <g id="Camada_x0020_1">
  <metadata id="CorelCorpID_0Corel-Layer"/>
  <g id="_2132866398464">
   <path class="fil0" d="M3990 3185l-147 0 -4 96c-112,9 -469,-15 -540,10l0 2209 1866 3 2 -2218 -540 -3 -1 -93 -149 -5c-40,-304 -459,-285 -487,1z"/>
   <path class="fil1" d="M4625 3477l-784 0 0 -128 -337 -4 0 1950 1456 2c15,-115 9,-1909 -3,-1951l-327 -1 -5 132z"/>
   <polygon class="fil2" points="5029,3346 5025,5357 3444,5359 3442,3345 3366,3347 3362,5437 5103,5441 5105,3347 "/>
   <path class="fil0" d="M4159 3554l-46 -38c-84,85 -113,44 -84,115l-39 -7 -43 119c13,10 12,8 19,13l24 21 -47 13 32 123c39,5 20,-10 55,7l-22 52c24,11 78,50 93,72 39,-14 14,-17 54,-28l12 49 135 1 3 -52 35 22c2,1 5,4 6,5 1,1 4,3 6,5 113,-72 109,-73 84,-114 50,14 37,21 56,-27 10,-25 17,-52 27,-79l-38 -31 42 -16 -31 -127 -60 4c9,-43 18,-35 19,-64 -31,-26 -56,-42 -89,-68 -55,18 2,16 -52,30l-16 -55 -119 1 -16 54z"/>
   <path class="fil2" d="M4052 3247l-147 0 -3 168 662 0 -1 -168 -148 0c3,-118 -47,-218 -177,-222 -130,-3 -191,93 -186,222z"/>
   <path class="fil3" d="M4092 3598c4,9 47,54 -30,100 -13,8 -17,4 -40,6 5,5 76,60 -4,133 33,19 27,3 56,47l26 34c11,24 3,17 -7,43 56,-18 15,-23 76,-2 3,1 32,10 38,13l41 40c6,-98 49,10 134,-116 21,-31 21,-33 63,-28l-28 -74c-1,-59 -6,-50 38,-51l-35 -25c-3,-2 -5,-3 -7,-5l-25 -35c-80,-117 -111,-20 -150,-120 -50,49 21,24 -61,51 -65,21 -34,11 -85,-11z"/>
  </g>
 </g>
</svg>
