<?xml version="1.0" encoding="UTF-8"?>
<!DOCTYPE svg PUBLIC "-//W3C//DTD SVG 1.1//EN" "http://www.w3.org/Graphics/SVG/1.1/DTD/svg11.dtd">
<!-- Creator: CorelDRAW X7 -->
<svg xmlns="http://www.w3.org/2000/svg" xml:space="preserve" width="8.4666mm" height="8.4666mm" version="1.1" style="shape-rendering:geometricPrecision; text-rendering:geometricPrecision; image-rendering:optimizeQuality; fill-rule:evenodd; clip-rule:evenodd"
viewBox="0 0 847 847"
 xmlns:xlink="http://www.w3.org/1999/xlink">
 <defs>
  <style type="text/css">
   <![CDATA[
    .str0 {stroke:#516199;stroke-width:225.21}
    .str1 {stroke:#516199;stroke-width:225.21;stroke-linecap:round;stroke-linejoin:round}
    .fil1 {fill:none;fill-rule:nonzero}
    .fil2 {fill:#FEFEFE;fill-rule:nonzero}
    .fil0 {fill:#7CCBEF;fill-rule:nonzero}
    .fil3 {fill:#516199;fill-rule:nonzero}
   ]]>
  </style>
 </defs>
 <g id="Camada_x0020_1">
  <metadata id="CorelCorpID_0Corel-Layer"/>
  <path class="fil0" d="M-89397 6548c0,268 -217,485 -485,485l-4152 0c-268,0 -485,-217 -485,-485l0 -7968c0,-268 217,-485 485,-485l4152 0c268,0 485,217 485,485l0 7968z"/>
  <path class="fil1 str0" d="M-89397 6548c0,268 -217,485 -485,485l-4152 0c-268,0 -485,-217 -485,-485l0 -7968c0,-268 217,-485 485,-485l4152 0c268,0 485,217 485,485l0 7968z"/>
  <polygon class="fil2" points="-94519,6114 -89397,6114 -89397,-985 -94519,-985 "/>
  <polygon class="fil1 str0" points="-94519,6114 -89397,6114 -89397,-985 -94519,-985 "/>
  <polygon class="fil2" points="-92843,-1427 -91609,-1427 "/>
  <line class="fil1 str0" x1="-92843" y1="-1427" x2="-91609" y2= "-1427" />
  <polygon class="fil2" points="-91446,-1427 -91074,-1427 "/>
  <line class="fil1 str0" x1="-91446" y1="-1427" x2="-91074" y2= "-1427" />
  <polygon class="fil2" points="-93881,3602 -93881,5579 -91958,5579 "/>
  <polyline class="fil1 str0" points="-93881,3602 -93881,5579 -91958,5579 "/>
  <path class="fil0" d="M-91958 2961c-219,0 -397,-178 -397,-397 0,-219 178,-396 397,-396 219,0 396,177 396,396 0,219 -177,397 -396,397zm1251 -241l258 -20 -38 -497 -254 20c-38,-140 -100,-269 -180,-385l175 -183 -361 -344 -173 182c-129,-83 -274,-142 -429,-174l0 -249 -498 0 0 249c-196,40 -375,124 -527,242l-190 -164 -327 376 192 166c-80,142 -133,301 -153,470l-255 19 37 497 259 -19c39,137 101,264 181,378l-180 190 360 344 182 -191c127,79 269,137 421,168l0 264 498 0 0 -264c192,-39 368,-121 518,-235l198 172 327 -377 -197 -170c81,-141 134,-298 156,-465z"/>
  <path class="fil1 str0" d="M-91958 2961c-219,0 -397,-178 -397,-397 0,-219 178,-396 397,-396 219,0 396,177 396,396 0,219 -177,397 -396,397zm1251 -241l258 -20 -38 -497 -254 20c-38,-140 -100,-269 -180,-385l175 -183 -361 -344 -173 182c-129,-83 -274,-142 -429,-174l0 -249 -498 0 0 249c-196,40 -375,124 -527,242l-190 -164 -327 376 192 166c-80,142 -133,301 -153,470l-255 19 37 497 259 -19c39,137 101,264 181,378l-180 190 360 344 182 -191c127,79 269,137 421,168l0 264 498 0 0 -264c192,-39 368,-121 518,-235l198 172 327 -377 -197 -170c81,-141 134,-298 156,-465z"/>
  <path class="fil2" d="M-91562 2564c0,219 -177,397 -396,397 -219,0 -397,-178 -397,-397 0,-219 178,-396 397,-396 219,0 396,177 396,396z"/>
  <path class="fil1 str0" d="M-91562 2564c0,219 -177,397 -396,397 -219,0 -397,-178 -397,-397 0,-219 178,-396 397,-396 219,0 396,177 396,396z"/>
  <path class="fil1 str0" d="M-72370 3327l40 -1232 -747 -25c-46,-256 -117,-503 -210,-739l685 -376 -593 -1081 -729 400c-157,-185 -332,-354 -521,-505l436 -736 -1062 -628 -448 758c-219,-79 -446,-138 -681,-176l0 -892 -1233 0 0 892c-178,28 -352,69 -521,122l-415 -780 -1089 578 403 759c-176,129 -340,272 -490,428l-709 -451 -663 1040 668 425c-109,228 -194,468 -255,718l-759 -25 -40 1233 703 23c23,275 75,541 154,795l-585 321 593 1081 543 -298c167,231 359,442 573,630l-302 510 1062 628 286 -484c267,112 549,193 843,241l0 552 1233 0 0 -552c233,-38 458,-97 674,-175l262 494 1089 -579 -275 -518c203,-162 390,-345 556,-545l515 328 662 -1041 -553 -352c96,-251 167,-515 209,-788l691 22z"/>
  <path class="fil0" d="M-76816 4411c-1020,0 -1847,-827 -1847,-1847 0,-1019 827,-1846 1847,-1846 1019,0 1846,827 1846,1846 0,1020 -827,1847 -1846,1847zm0 -4543c-1490,0 -2697,1207 -2697,2696 0,1490 1207,2696 2697,2696 1488,0 2695,-1206 2695,-2696 0,-1489 -1207,-2696 -2695,-2696z"/>
  <path class="fil1 str0" d="M-76816 4411c-1020,0 -1847,-827 -1847,-1847 0,-1019 827,-1846 1847,-1846 1019,0 1846,827 1846,1846 0,1020 -827,1847 -1846,1847zm0 -4543c-1490,0 -2697,1207 -2697,2696 0,1490 1207,2696 2697,2696 1488,0 2695,-1206 2695,-2696 0,-1489 -1207,-2696 -2695,-2696z"/>
  <path class="fil1 str0" d="M-73609 2564c0,1772 -1436,3208 -3207,3208"/>
  <path class="fil1 str0" d="M-106446 -32188l-1377 0 -471 705 -385 0 -244 -277 -539 0 0 1298 593 0 109 -270 310 0c0,0 626,114 756,929l1353 0 237 -825c341,-935 1308,110 1308,110l59 -38c-378,-1582 -1709,-1632 -1709,-1632z"/>
  <polygon class="fil1 str0" points="-107694,-28883 -106348,-28883 -106348,-29803 -107694,-29803 "/>
  <polygon class="fil1 str0" points="-107311,-26899 -106731,-26899 -106731,-28883 -107311,-28883 "/>
  <path class="fil0" d="M-106050 -23250c-45,-372 -299,-439 -299,-439l0 -2838c-16,-361 -239,-372 -239,-372l-867 0c0,0 -222,11 -239,372l0 2838c0,0 -253,67 -298,439l1942 0z"/>
  <path class="fil1 str0" d="M-106050 -23250c-45,-372 -299,-439 -299,-439l0 -2838c-16,-361 -239,-372 -239,-372l-867 0c0,0 -222,11 -239,372l0 2838c0,0 -253,67 -298,439l1942 0z"/>
  <path class="fil1 str0" d="M-108244 -31064c0,0 747,69 875,919"/>
  <path class="fil1 str0" d="M-61163 -47170l0 1178 -1023 0 0 -1178c-455,198 -773,651 -773,1178 0,709 575,1284 1284,1284 709,0 1284,-575 1284,-1284 0,-527 -318,-980 -772,-1178z"/>
  <path class="fil1 str0" d="M-60808 -46064c-13,518 -443,929 -962,917"/>
  <polygon class="fil1 str0" points="-61915,-43347 -61431,-43347 -61431,-44731 -61915,-44731 "/>
  <path class="fil0" d="M-61191 -43054l0 4122c0,427 -484,379 -484,379 -484,8 -484,-379 -484,-379l0 -4122c0,0 15,-360 484,-349 0,0 432,-34 484,349z"/>
  <path class="fil1 str0" d="M-61191 -43054l0 4122c0,427 -484,379 -484,379 -484,8 -484,-379 -484,-379l0 -4122c0,0 15,-360 484,-349 0,0 432,-34 484,349z"/>
  <path class="fil2" d="M-61543 -39476c0,74 -58,133 -132,133l0 0c-73,0 -133,-59 -133,-133l0 -3113c0,-73 60,-133 133,-133l0 0c74,0 132,60 132,133l0 3113z"/>
  <path class="fil1 str0" d="M-61543 -39476c0,74 -58,133 -132,133l0 0c-73,0 -133,-59 -133,-133l0 -3113c0,-73 60,-133 133,-133l0 0c74,0 132,60 132,133l0 3113z"/>
  <path class="fil1 str0" d="M-119097 6569c0,256 -208,464 -464,464l-5361 0c-256,0 -464,-208 -464,-464l0 -8009c0,-257 208,-465 464,-465l5361 0c256,0 464,208 464,465l0 8009z"/>
  <polygon class="fil0" points="-124674,252 -119809,252 -119809,-829 -124674,-829 "/>
  <polygon class="fil1 str0" points="-124674,252 -119809,252 -119809,-829 -124674,-829 "/>
  <polygon class="fil1 str0" points="-124674,1273 -119809,1273 -119809,883 -124674,883 "/>
  <polygon class="fil0" points="-124185,2926 -123283,2926 -123283,2025 -124185,2025 "/>
  <polygon class="fil1 str0" points="-124185,2926 -123283,2926 -123283,2025 -124185,2025 "/>
  <polygon class="fil0" points="-122692,2926 -121791,2926 -121791,2025 -122692,2025 "/>
  <polygon class="fil1 str0" points="-122692,2926 -121791,2926 -121791,2025 -122692,2025 "/>
  <polygon class="fil0" points="-121200,2926 -120298,2926 -120298,2025 -121200,2025 "/>
  <polygon class="fil1 str0" points="-121200,2926 -120298,2926 -120298,2025 -121200,2025 "/>
  <polygon class="fil0" points="-124185,4442 -123283,4442 -123283,3540 -124185,3540 "/>
  <polygon class="fil1 str0" points="-124185,4442 -123283,4442 -123283,3540 -124185,3540 "/>
  <polygon class="fil0" points="-122692,4442 -121791,4442 -121791,3540 -122692,3540 "/>
  <polygon class="fil1 str0" points="-122692,4442 -121791,4442 -121791,3540 -122692,3540 "/>
  <polygon class="fil0" points="-121200,4442 -120298,4442 -120298,3540 -121200,3540 "/>
  <polygon class="fil1 str0" points="-121200,4442 -120298,4442 -120298,3540 -121200,3540 "/>
  <polygon class="fil0" points="-124185,5958 -123283,5958 -123283,5056 -124185,5056 "/>
  <polygon class="fil1 str0" points="-124185,5958 -123283,5958 -123283,5056 -124185,5056 "/>
  <polygon class="fil0" points="-122692,5958 -121791,5958 -121791,5056 -122692,5056 "/>
  <polygon class="fil1 str0" points="-122692,5958 -121791,5958 -121791,5056 -122692,5056 "/>
  <polygon class="fil0" points="-121200,5958 -120298,5958 -120298,5056 -121200,5056 "/>
  <polygon class="fil1 str0" points="-121200,5958 -120298,5958 -120298,5056 -121200,5056 "/>
  <path class="fil1 str0" d="M-119685 3452l0 2564c0,256 -208,464 -464,464l-1536 0"/>
  <path class="fil0" d="M-119444 -9770l-3325 0 3325 -3325 0 3325zm-7266 1661l8937 0 0 -8937 -8937 8937z"/>
  <path class="fil1 str0" d="M-119444 -9770l-3325 0 3325 -3325 0 3325zm-7266 1661l8937 0 0 -8937 -8937 8937z"/>
  <polygon class="fil0" points="-125615,-8573 -125615,-8109 "/>
  <line class="fil1 str0" x1="-125615" y1="-8573" x2="-125615" y2= "-8109" />
  <polygon class="fil0" points="-125052,-8573 -125052,-8109 "/>
  <line class="fil1 str0" x1="-125052" y1="-8573" x2="-125052" y2= "-8109" />
  <polygon class="fil0" points="-124489,-8573 -124489,-8109 "/>
  <line class="fil1 str0" x1="-124489" y1="-8573" x2="-124489" y2= "-8109" />
  <polygon class="fil0" points="-123926,-8573 -123926,-8109 "/>
  <line class="fil1 str0" x1="-123926" y1="-8573" x2="-123926" y2= "-8109" />
  <polygon class="fil0" points="-123363,-8573 -123363,-8109 "/>
  <line class="fil1 str0" x1="-123363" y1="-8573" x2="-123363" y2= "-8109" />
  <polygon class="fil0" points="-122800,-8573 -122800,-8109 "/>
  <line class="fil1 str0" x1="-122800" y1="-8573" x2="-122800" y2= "-8109" />
  <polygon class="fil0" points="-122237,-8573 -122237,-8109 "/>
  <line class="fil1 str0" x1="-122237" y1="-8573" x2="-122237" y2= "-8109" />
  <polygon class="fil0" points="-121674,-8573 -121674,-8109 "/>
  <line class="fil1 str0" x1="-121674" y1="-8573" x2="-121674" y2= "-8109" />
  <polygon class="fil0" points="-121111,-8573 -121111,-8109 "/>
  <line class="fil1 str0" x1="-121111" y1="-8573" x2="-121111" y2= "-8109" />
  <polygon class="fil0" points="-120548,-8573 -120548,-8109 "/>
  <line class="fil1 str0" x1="-120548" y1="-8573" x2="-120548" y2= "-8109" />
  <polygon class="fil0" points="-119985,-8573 -119985,-8109 "/>
  <line class="fil1 str0" x1="-119985" y1="-8573" x2="-119985" y2= "-8109" />
  <polygon class="fil0" points="-119422,-8573 -119422,-8109 "/>
  <line class="fil1 str0" x1="-119422" y1="-8573" x2="-119422" y2= "-8109" />
  <polygon class="fil0" points="-118859,-8573 -118859,-8109 "/>
  <line class="fil1 str0" x1="-118859" y1="-8573" x2="-118859" y2= "-8109" />
  <polygon class="fil0" points="-118296,-8573 -118296,-8109 "/>
  <line class="fil1 str0" x1="-118296" y1="-8573" x2="-118296" y2= "-8109" />
  <path class="fil0" d="M-102631 -10874c0,258 -209,468 -468,468l-8002 0c-258,0 -468,-210 -468,-468l0 -5078c0,-258 210,-468 468,-468l8002 0c259,0 468,210 468,468l0 5078z"/>
  <path class="fil1 str0" d="M-102631 -10874c0,258 -209,468 -468,468l-8002 0c-258,0 -468,-210 -468,-468l0 -5078c0,-258 210,-468 468,-468l8002 0c259,0 468,210 468,468l0 5078z"/>
  <polygon class="fil2" points="-111039,-10950 -103160,-10950 -103160,-15876 -111039,-15876 "/>
  <polygon class="fil1 str1" points="-111039,-10950 -103160,-10950 -103160,-15876 -111039,-15876 "/>
  <polygon class="fil0" points="-107945,-9140 -106255,-9140 -106255,-10406 -107945,-10406 "/>
  <polygon class="fil1 str0" points="-107945,-9140 -106255,-9140 -106255,-10406 -107945,-10406 "/>
  <path class="fil2" d="M-105699 -9140l-2801 0c0,0 -365,0 -403,405l3606 0c-38,-405 -402,-405 -402,-405z"/>
  <path class="fil1 str1" d="M-105699 -9140l-2801 0c0,0 -365,0 -403,405l3606 0c-38,-405 -402,-405 -402,-405z"/>
  <polyline class="fil1 str0" points="-110488,-13892 -110488,-11460 -108326,-11460 "/>
  <path class="fil1 str0" d="M-107100 -12365c-579,0 -1048,-469 -1048,-1048 0,-579 469,-1048 1048,-1048 579,0 1048,469 1048,1048 0,579 -469,1048 -1048,1048zm1539 -1029c0,-46 -3,-93 -6,-138l308 -81 -138 -528 -315 82c-66,-138 -152,-264 -255,-376l202 -261 -432 -333 -204 264c-132,-67 -275,-116 -426,-143l0 -336 -546 0 0 336c-143,25 -279,71 -406,133l-200 -267 -437 327 198 264c-75,80 -142,167 -200,262l-306 -113 -189 512 301 111c-17,92 -27,188 -27,285 0,34 2,67 4,101l-305 80 138 527 298 -77c65,143 151,276 255,392l-186 241 432 333 183 -237c138,73 288,126 447,155l0 297 546 0 0 -297c151,-28 295,-77 427,-144l179 239 437 -327 -182 -243c78,-84 145,-177 202,-276l288 106 189 -513 -294 -108c13,-81 20,-164 20,-249z"/>
  <path class="fil2" d="M-76816 -11392c-655,0 -1186,-531 -1186,-1186 0,-654 531,-1185 1186,-1185 654,0 1185,531 1185,1185 0,655 -531,1186 -1185,1186zm3742 -721l770 -57 -112 -1486 -761 57c-115,-416 -298,-804 -538,-1150l522 -547 -1077 -1029 -519 543c-386,-246 -818,-425 -1282,-517l0 -747 -1491 0 0 747c-585,117 -1121,370 -1574,724l-568 -494 -977 1126 573 497c-238,424 -397,899 -456,1405l-765 57 112 1486 773 -59c118,411 303,792 543,1133l-540 565 1078 1029 544 -570c379,238 803,411 1257,502l0 789 1491 0 0 -789c573,-115 1100,-360 1548,-704l594 516 976 -1125 -589 -512c241,-419 403,-889 468,-1390z"/>
  <path class="fil1 str0" d="M-76816 -11392c-655,0 -1186,-531 -1186,-1186 0,-654 531,-1185 1186,-1185 654,0 1185,531 1185,1185 0,655 -531,1186 -1185,1186zm3742 -721l770 -57 -112 -1486 -761 57c-115,-416 -298,-804 -538,-1150l522 -547 -1077 -1029 -519 543c-386,-246 -818,-425 -1282,-517l0 -747 -1491 0 0 747c-585,117 -1121,370 -1574,724l-568 -494 -977 1126 573 497c-238,424 -397,899 -456,1405l-765 57 112 1486 773 -59c118,411 303,792 543,1133l-540 565 1078 1029 544 -570c379,238 803,411 1257,502l0 789 1491 0 0 -789c573,-115 1100,-360 1548,-704l594 516 976 -1125 -589 -512c241,-419 403,-889 468,-1390z"/>
  <path class="fil0" d="M-74444 -12577c0,1310 -1063,2372 -2372,2372 -1311,0 -2373,-1062 -2373,-2372 0,-1310 1062,-2373 2373,-2373 1309,0 2372,1063 2372,2373z"/>
  <path class="fil1 str0" d="M-74444 -12577c0,1310 -1063,2372 -2372,2372 -1311,0 -2373,-1062 -2373,-2372 0,-1310 1062,-2373 2373,-2373 1309,0 2372,1063 2372,2373z"/>
  <path class="fil2" d="M-75631 -12578c0,655 -531,1186 -1185,1186 -655,0 -1186,-531 -1186,-1186 0,-654 531,-1185 1186,-1185 654,0 1185,531 1185,1185z"/>
  <path class="fil1 str0" d="M-75631 -12578c0,655 -531,1186 -1185,1186 -655,0 -1186,-531 -1186,-1186 0,-654 531,-1185 1186,-1185 654,0 1185,531 1185,1185z"/>
  <path class="fil1 str0" d="M-76816 -15680c1648,0 3102,1325 3102,3102"/>
  <polygon class="fil1 str0" points="-93918,-9241 -91851,-15181 -92598,-15441 -94433,-9419 -94433,-8115 "/>
  <polygon class="fil1 str0" points="-89510,-8115 -89484,-9241 -91239,-15441 -91985,-15181 "/>
  <path class="fil0" d="M-91039 -15121c0,485 -393,879 -879,879 -486,0 -880,-394 -880,-879 0,-486 394,-879 880,-879 486,0 879,393 879,879z"/>
  <path class="fil1 str0" d="M-91039 -15121c0,485 -393,879 -879,879 -486,0 -880,-394 -880,-879 0,-486 394,-879 880,-879 486,0 879,393 879,879z"/>
  <path class="fil1 str0" d="M-89483 -13818c-650,602 -1520,969 -2475,969 -956,0 -1825,-367 -2475,-969"/>
  <line class="fil1 str0" x1="-91918" y1="-13552" x2="-91918" y2= "-12434" />
  <path class="fil0" d="M-91918 -16000c103,0 202,17 293,50l0 -796c0,-162 -131,-294 -293,-294 -162,0 -294,132 -294,294l0 796c92,-33 191,-50 294,-50z"/>
  <path class="fil1 str0" d="M-91918 -16000c103,0 202,17 293,50l0 -796c0,-162 -131,-294 -293,-294 -162,0 -294,132 -294,294l0 796c92,-33 191,-50 294,-50z"/>
  <path class="fil0" d="M-93228 -10427c0,333 -270,602 -602,602 -333,0 -603,-269 -603,-602 0,-333 270,-603 603,-603 332,0 602,270 602,603z"/>
  <path class="fil1 str0" d="M-93228 -10427c0,333 -270,602 -602,602 -333,0 -603,-269 -603,-602 0,-333 270,-603 603,-603 332,0 602,270 602,603z"/>
  <path class="fil1 str1" d="M-75429 -40238l0 -336c40,-471 7,-684 284,-825 917,-563 1529,-1575 1529,-2729 0,-1768 -1433,-3202 -3200,-3202 -1768,0 -3201,1434 -3201,3202 0,1154 611,2166 1528,2729 317,237 245,354 284,825l0 336 2776 0z"/>
  <polygon class="fil1 str1" points="-78204,-39102 -75427,-39102 -75427,-40238 -78204,-40238 "/>
  <line class="fil1 str1" x1="-78204" y1="-39842" x2="-75428" y2= "-39842" />
  <line class="fil1 str1" x1="-78204" y1="-39470" x2="-75428" y2= "-39470" />
  <path class="fil1 str1" d="M-77638 -39102c59,401 404,710 822,710 418,0 763,-309 822,-710l-1644 0z"/>
  <path class="fil1 str0" d="M-74585 -43787l21 -619 -375 -12c-23,-128 -59,-252 -106,-371l344 -188 -297 -543 -366 200c-79,-93 -167,-178 -262,-253l218 -370 -532 -315 -226 381c-109,-40 -223,-70 -341,-89l0 -447 -619 0 0 447c-90,15 -177,35 -262,61l-208 -392 -547 291 202 381c-87,64 -170,136 -246,215l-355 -227 -333 522 335 214c-54,114 -97,235 -128,361l-381 -13 -20 619 353 11c12,138 38,272 77,400l-294 161 298 542 273 -149c84,116 180,222 287,316l-151 256 533 315 144 -242c134,55 275,96 423,120l0 278 619 0 0 -278c116,-18 229,-48 338,-87l132 248 547 -291 -138 -260c102,-82 195,-173 279,-274l258 165 333 -522 -278 -178c48,-125 84,-258 104,-396l347 12z"/>
  <path class="fil0" d="M-76816 -43243c-513,0 -927,-415 -927,-927 0,-512 414,-927 927,-927 511,0 926,415 926,927 0,512 -415,927 -926,927zm0 -2280c-748,0 -1354,605 -1354,1353 0,748 606,1354 1354,1354 747,0 1353,-606 1353,-1354 0,-748 -606,-1353 -1353,-1353z"/>
  <path class="fil1 str0" d="M-76816 -43243c-513,0 -927,-415 -927,-927 0,-512 414,-927 927,-927 511,0 926,415 926,927 0,512 -415,927 -926,927zm0 -2280c-748,0 -1354,605 -1354,1353 0,748 606,1354 1354,1354 747,0 1353,-606 1353,-1354 0,-748 -606,-1353 -1353,-1353z"/>
  <path class="fil1 str0" d="M-74118 -44126c0,1447 -1172,2619 -2619,2619"/>
  <path class="fil1 str1" d="M-103157 -1295l-7886 0c-284,0 -515,231 -515,515l0 5472c0,284 231,515 515,515l5358 0 -105 1216 1426 -1216 1207 0c284,0 515,-231 515,-515l0 -5472c0,-284 -231,-515 -515,-515z"/>
  <path class="fil0" d="M-107064 2877c-597,0 -1081,-484 -1081,-1081 0,-598 484,-1081 1081,-1081 597,0 1081,483 1081,1081 0,597 -484,1081 -1081,1081zm1588 -1061c0,-49 -3,-96 -7,-143l318 -83 -142 -545 -325 85c-68,-142 -157,-273 -263,-388l208 -270 -445 -344 -211 273c-136,-69 -284,-120 -439,-147l0 -347 -563 0 0 347c-148,26 -288,73 -419,137l-207 -276 -450 338 204 273c-78,82 -147,172 -206,269l-316 -116 -195 528 310 115c-17,95 -27,193 -27,294 0,34 1,69 4,103l-316 83 143 544 308 -80c67,148 156,285 263,405l-192 248 446 344 188 -244c143,75 298,130 462,159l0 307 563 0 0 -307c156,-28 304,-79 440,-149l185 247 451 -337 -188 -251c80,-86 150,-182 209,-285l297 110 194 -529 -303 -111c13,-84 21,-170 21,-257z"/>
  <path class="fil1 str0" d="M-107064 2877c-597,0 -1081,-484 -1081,-1081 0,-598 484,-1081 1081,-1081 597,0 1081,483 1081,1081 0,597 -484,1081 -1081,1081zm1588 -1061c0,-49 -3,-96 -7,-143l318 -83 -142 -545 -325 85c-68,-142 -157,-273 -263,-388l208 -270 -445 -344 -211 273c-136,-69 -284,-120 -439,-147l0 -347 -563 0 0 347c-148,26 -288,73 -419,137l-207 -276 -450 338 204 273c-78,82 -147,172 -206,269l-316 -116 -195 528 310 115c-17,95 -27,193 -27,294 0,34 1,69 4,103l-316 83 143 544 308 -80c67,148 156,285 263,405l-192 248 446 344 188 -244c143,75 298,130 462,159l0 307 563 0 0 -307c156,-28 304,-79 440,-149l185 247 451 -337 -188 -251c80,-86 150,-182 209,-285l297 110 194 -529 -303 -111c13,-84 21,-170 21,-257z"/>
  <path class="fil1 str0" d="M-110865 1556l0 2277c0,0 46,392 406,481l2522 0"/>
  <path class="fil1 str0" d="M-92332 -24806c143,958 -2083,988 -2271,-462 -915,256 -1548,-627 -1105,-1408 -531,-363 -521,-1420 32,-1737 -422,-450 90,-1711 1112,-1486 -279,-1013 1200,-1839 2238,-1031l-6 6124z"/>
  <path class="fil1 str0" d="M-94595 -30124c76,449 472,797 924,878"/>
  <path class="fil1 str0" d="M-93671 -30462c-105,672 1022,954 1328,518"/>
  <path class="fil1 str0" d="M-94234 -29471c-2,236 -318,538 -496,608"/>
  <path class="fil1 str0" d="M-94933 -28097c278,140 284,544 585,634 315,94 486,-255 613,-496 193,-369 480,-518 897,-452 136,21 372,116 450,156"/>
  <path class="fil1 str0" d="M-95248 -28120c216,268 562,-127 338,-360"/>
  <path class="fil1 str0" d="M-92320 -26723c-296,-295 -757,38 -856,357 -117,376 239,682 114,1048 -76,223 -251,321 -474,284"/>
  <path class="fil1 str0" d="M-94595 -25080c-347,-908 1374,-652 631,-2026"/>
  <path class="fil1 str0" d="M-95721 -26633c123,-202 418,-217 633,-204 194,12 412,158 493,181"/>
  <path class="fil1 str0" d="M-87850 -27106l32 -991 -601 -20c-36,-205 -93,-404 -169,-593l552 -302 -477 -870 -586 322c-126,-149 -267,-285 -419,-407l350 -591 -853 -505 -361 610c-175,-64 -358,-112 -547,-143l0 -715 -490 0 0 7184 490 0 0 -444c187,-30 368,-77 542,-140l211 397 875 -465 -221 -417c163,-131 314,-277 447,-438l414 264 533 -837 -446 -284c78,-201 135,-413 168,-633l556 18z"/>
  <path class="fil0" d="M-91419 -29886l0 683c817,3 1479,666 1479,1484 0,818 -662,1481 -1479,1484l0 683c1195,-3 2162,-972 2162,-2167 0,-1195 -967,-2164 -2162,-2167z"/>
  <path class="fil1 str0" d="M-91419 -29886l0 683c817,3 1479,666 1479,1484 0,818 -662,1481 -1479,1484l0 683c1195,-3 2162,-972 2162,-2167 0,-1195 -967,-2164 -2162,-2167z"/>
  <path class="fil0" d="M-61172 -25680c0,-7 1,-13 1,-20l0 -3971c0,-29 -3,-55 -8,-80 487,-194 830,-669 830,-1226 0,-542 -327,-1008 -794,-1211l0 1211 -1052 0 0 -1211c-467,203 -795,669 -795,1211 0,557 344,1032 830,1226 -4,25 -7,51 -7,80l0 3971c0,3 1,7 1,11 -490,194 -835,670 -835,1227 0,543 327,1009 795,1212l0 -1212 1052 0 0 1212c467,-203 794,-669 794,-1212 0,-549 -335,-1019 -812,-1218z"/>
  <path class="fil1 str0" d="M-61172 -25680c0,-7 1,-13 1,-20l0 -3971c0,-29 -3,-55 -8,-80 487,-194 830,-669 830,-1226 0,-542 -327,-1008 -794,-1211l0 1211 -1052 0 0 -1211c-467,203 -795,669 -795,1211 0,557 344,1032 830,1226 -4,25 -7,51 -7,80l0 3971c0,3 1,7 1,11 -490,194 -835,670 -835,1227 0,543 327,1009 795,1212l0 -1212 1052 0 0 1212c467,-203 794,-669 794,-1212 0,-549 -335,-1019 -812,-1218z"/>
  <path class="fil2" d="M-61516 -26015c0,72 -71,130 -159,130l0 0c-88,0 -159,-58 -159,-130l0 -3408c0,-72 71,-130 159,-130l0 0c88,0 159,58 159,130l0 3408z"/>
  <path class="fil1 str0" d="M-61516 -26015c0,72 -71,130 -159,130l0 0c-88,0 -159,-58 -159,-130l0 -3408c0,-72 71,-130 159,-130l0 0c88,0 159,58 159,130l0 3408z"/>
  <path class="fil1 str0" d="M-60696 -30910c-14,533 -456,956 -990,943"/>
  <path class="fil1 str0" d="M-62653 -24273c12,-533 456,-956 989,-944"/>
  <g id="_2701058732928">
   <polygon class="fil0" points="164,779 682,779 682,160 164,160 "/>
   <g>
    <path class="fil3" d="M682 788l-518 0 0 -18 518 0 9 9 -9 9zm9 -9l0 9 -9 0 9 -9zm0 -619l0 619 -17 0 0 -619 8 -9 9 9zm-9 -9l9 0 0 9 -9 -9zm-518 0l518 0 0 18 -518 0 -9 -9 9 -9zm-9 9l0 -9 9 0 -9 9zm0 619l0 -619 18 0 0 619 -9 9 -9 -9zm9 9l-9 0 0 -9 9 9z"/>
   </g>
   <polygon class="fil2" points="205,737 641,737 641,160 205,160 "/>
   <g>
    <path class="fil3" d="M641 746l-436 0 0 -18 436 0 9 9 -9 9zm9 -9l0 9 -9 0 9 -9zm0 -577l0 577 -18 0 0 -577 9 -9 9 9zm-9 -9l9 0 0 9 -9 -9zm-436 0l436 0 0 18 -436 0 -9 -9 9 -9zm-9 9l0 -9 9 0 -9 9zm0 577l0 -577 18 0 0 577 -9 9 -9 -9zm9 9l-9 0 0 -9 9 9z"/>
   </g>
   <polygon class="fil0" points="257,391 590,391 "/>
   <g>
    <polygon class="fil3" points="590,400 257,400 257,382 590,382 "/>
   </g>
   <polygon class="fil0" points="257,502 335,502 "/>
   <g>
    <polygon class="fil3" points="335,511 257,511 257,494 335,494 "/>
   </g>
   <polygon class="fil0" points="365,502 590,502 "/>
   <g>
    <polygon class="fil3" points="590,511 365,511 365,494 590,494 "/>
   </g>
   <polygon class="fil0" points="257,443 384,443 "/>
   <g>
    <polygon class="fil3" points="384,452 257,452 257,434 384,434 "/>
   </g>
   <polygon class="fil0" points="420,443 590,443 "/>
   <g>
    <polygon class="fil3" points="590,452 420,452 420,434 590,434 "/>
   </g>
   <polygon class="fil0" points="257,559 590,559 "/>
   <g>
    <polygon class="fil3" points="590,568 257,568 257,550 590,550 "/>
   </g>
   <polygon class="fil0" points="257,670 335,670 "/>
   <g>
    <polygon class="fil3" points="335,679 257,679 257,661 335,661 "/>
   </g>
   <polygon class="fil0" points="365,670 590,670 "/>
   <g>
    <polygon class="fil3" points="590,679 365,679 365,661 590,661 "/>
   </g>
   <polygon class="fil0" points="257,611 384,611 "/>
   <g>
    <polygon class="fil3" points="384,620 257,620 257,602 384,602 "/>
   </g>
   <polygon class="fil0" points="420,611 590,611 "/>
   <g>
    <polygon class="fil3" points="590,620 420,620 420,602 590,602 "/>
   </g>
   <path class="fil0" d="M485 132c0,-1 0,-2 0,-3 0,-34 -28,-61 -62,-61 -34,0 -61,27 -61,61 0,1 0,2 0,3l-43 0 0 66 208 0 0 -66 -42 0z"/>
   <g>
    <path class="fil3" d="M476 129l18 0 0 0 0 0 0 0 0 0 0 1 0 0 0 0 0 0 0 0 0 0 0 1 0 0 0 0 0 0 0 0 0 0 0 0 0 0 0 0 0 0 0 0 0 0 0 0 0 0 0 1 0 0 0 0 0 0 0 -1 0 1 0 0 0 -1 0 1 -18 -1 0 0 0 0 0 0 0 0 0 0 0 0 0 -1 0 0 0 0 0 0 0 0 0 0 0 0 0 0 0 0 0 0 0 0 0 0 0 0 0 -1 0 0 0 0 0 1 0 -1 0 0 0 1 0 -1 0 0 0 0 0 0 0 0 0 0 0 0zm-53 -52l0 -18 0 0 4 0 4 0 3 1 4 0 3 1 3 1 4 1 3 1 3 2 3 1 3 2 3 2 2 2 3 2 3 2 2 2 2 3 3 2 2 3 2 3 2 3 1 3 2 3 1 3 1 3 2 3 1 4 0 3 1 3 0 4 1 4 0 3 -18 0 0 -3 0 -2 -1 -3 0 -2 -1 -3 -1 -2 0 -3 -1 -2 -1 -3 -2 -2 -1 -2 -1 -2 -2 -2 -1 -2 -2 -2 -2 -2 -1 -2 -2 -1 -2 -2 -2 -1 -2 -2 -3 -1 -2 -1 -2 -1 -3 -1 -2 -1 -3 -1 -2 0 -3 -1 -2 0 -3 0 -3 0 0 0zm-52 52l-18 0 0 0 0 -3 0 -4 1 -4 0 -3 1 -3 1 -4 1 -3 1 -3 2 -3 1 -3 2 -3 2 -3 2 -3 2 -3 2 -2 3 -3 2 -2 3 -2 2 -2 3 -2 3 -2 3 -2 3 -1 3 -2 3 -1 3 -1 4 -1 3 -1 4 0 3 -1 4 0 3 0 0 18 -2 0 -3 0 -3 0 -2 1 -3 0 -2 1 -3 1 -2 1 -2 1 -3 1 -2 1 -2 2 -2 1 -2 2 -2 1 -2 2 -2 2 -1 2 -2 2 -1 2 -2 2 -1 2 -1 2 -1 3 -1 2 -1 3 -1 2 0 3 -1 2 0 3 0 2 0 3 0 0zm-9 11l0 -17 -9 9 0 0 0 0 0 0 0 0 0 0 0 0 0 0 0 0 0 -1 0 0 0 1 0 -1 0 0 0 0 0 0 0 1 0 -1 0 0 0 0 0 0 0 0 0 0 0 -1 0 0 0 0 0 0 0 0 0 0 0 -1 0 0 0 0 0 0 18 0 0 0 0 0 0 0 0 0 0 0 0 1 0 -1 0 0 0 0 0 0 0 0 0 0 0 1 0 0 0 0 0 -1 0 1 0 0 0 0 0 0 0 -1 0 1 0 0 0 0 0 0 0 1 0 0 0 0 0 0 0 0 0 0 0 0 -9 9zm9 -9l0 9 -9 0 9 -9zm-52 -8l43 0 0 17 -43 0 -9 -8 9 -9zm-9 9l0 -9 9 0 -9 9zm0 66l0 -66 18 0 0 66 -9 9 -9 -9zm9 9l-9 0 0 -9 9 9zm208 0l-208 0 0 -18 208 0 9 9 -9 9zm9 -9l0 9 -9 0 9 -9zm0 -66l0 66 -18 0 0 -66 9 -9 9 9zm-9 -9l9 0 0 9 -9 -9zm-42 0l42 0 0 17 -42 0 -9 -9 9 -8zm0 17l-10 0 1 -9 9 9z"/>
   </g>
   <g>
    <path class="fil3" d="M386 294l18 0 0 0 0 1 0 1 0 1 0 1 1 1 0 1 0 1 1 1 0 1 0 0 1 1 0 1 1 1 0 0 1 1 1 1 0 0 1 1 1 1 1 0 0 1 1 0 1 1 1 0 1 0 1 1 1 0 0 0 1 0 1 0 1 0 1 0 0 18 -2 0 -1 0 -2 0 -2 0 -2 -1 -2 0 -1 -1 -2 -1 -2 0 -1 -1 -2 -1 -1 -1 -2 -1 -1 -1 -2 -1 -1 -2 -1 -1 -1 -1 -1 -2 -2 -1 0 -2 -1 -1 -1 -2 -1 -1 -1 -2 0 -2 -1 -2 0 -1 0 -2 -1 -2 0 -2 0 -2 0 0zm37 -37l0 18 0 0 -1 0 -1 0 -1 0 -1 0 0 1 -1 0 -1 0 -1 0 -1 1 -1 0 -1 1 0 0 -1 1 -1 0 -1 1 0 1 -1 0 -1 1 0 1 -1 0 0 1 -1 1 0 1 0 1 -1 1 0 0 0 1 -1 1 0 1 0 1 0 1 0 1 -18 0 0 -2 0 -2 1 -1 0 -2 0 -2 1 -2 0 -2 1 -1 1 -2 1 -2 1 -1 0 -2 2 -1 1 -2 1 -1 1 -1 1 -1 2 -2 1 -1 2 -1 1 -1 2 -1 1 0 2 -1 2 -1 1 0 2 -1 2 0 2 -1 2 0 1 0 2 0 0 0zm38 37l-18 0 0 0 0 -1 0 -1 -1 -1 0 -1 0 -1 0 -1 -1 0 0 -1 0 -1 -1 -1 0 -1 -1 -1 0 0 -1 -1 0 -1 -1 0 -1 -1 0 -1 -1 0 -1 -1 -1 0 0 -1 -1 0 -1 -1 -1 0 -1 0 -1 0 -1 -1 -1 0 -1 0 -1 0 -1 0 0 -18 2 0 2 0 2 0 2 1 2 0 1 1 2 0 2 1 1 1 2 0 2 1 1 1 2 1 1 1 1 2 2 1 1 1 1 1 1 2 1 1 1 2 1 1 1 2 1 2 0 1 1 2 0 2 1 2 0 2 0 1 0 2 1 2 0 0zm-38 37l0 -18 0 0 1 0 1 0 1 0 1 0 1 0 1 0 1 -1 1 0 1 0 1 -1 0 0 1 -1 1 0 1 -1 0 -1 1 0 1 -1 0 -1 1 0 0 -1 1 -1 0 -1 1 0 0 -1 0 -1 1 -1 0 -1 0 -1 0 -1 1 -1 0 -1 0 -1 18 0 -1 2 0 2 0 2 0 2 -1 1 0 2 -1 2 0 2 -1 1 -1 2 -1 1 -1 2 -1 1 -1 2 -1 1 -1 1 -2 2 -1 1 -1 1 -2 1 -1 1 -2 1 -2 1 -1 0 -2 1 -2 1 -1 0 -2 1 -2 0 -2 0 -2 0 -2 0 0 0zm59 -50l4 17 7 -9 0 0 0 0 0 0 0 0 0 1 0 0 0 0 0 0 0 0 0 1 0 0 0 0 0 0 0 0 0 1 0 0 0 0 0 0 0 0 0 1 0 0 0 0 0 0 0 0 0 0 0 1 0 0 0 0 0 0 0 1 0 0 0 0 -18 0 0 0 0 0 0 -1 0 1 0 -1 0 0 0 0 0 0 0 0 0 -1 0 0 0 0 0 0 0 0 0 0 0 -1 0 1 0 -1 0 0 0 0 0 0 0 0 0 0 0 0 0 -1 0 0 0 0 0 0 0 0 0 0 0 -1 0 0 7 -9zm-7 9l-1 -7 8 -2 -7 9zm24 5l-13 3 -4 -17 12 -3 11 6 -6 11zm6 -11l2 9 -8 2 6 -11zm-6 -21l6 21 -17 5 -6 -21 7 -11 10 6zm-10 -6l8 -3 2 9 -10 -6zm-13 3l13 -3 4 17 -12 3 -11 -5 6 -12zm5 17l-8 2 -3 -7 11 5zm-20 -29l14 11 0 -11 0 0 1 1 0 0 1 1 0 0 0 1 1 0 0 1 1 0 0 1 0 0 1 1 0 0 1 1 0 0 0 1 1 0 0 1 0 0 1 1 0 0 0 1 1 1 0 0 0 1 1 0 0 1 0 0 1 1 0 1 0 0 0 1 -16 7 0 0 0 0 0 -1 -1 0 0 -1 0 0 0 0 -1 -1 0 0 0 -1 0 0 -1 -1 0 0 0 0 0 -1 -1 0 0 -1 0 0 0 0 -1 -1 0 0 0 -1 -1 0 0 0 0 -1 0 0 -1 0 0 -1 0 0 -1 -1 0 0 0 0 -1 -12zm1 12l-5 -6 4 -6 1 12zm21 -11l-8 10 -14 -11 8 -10 13 -2 1 13zm-1 -13l7 6 -6 7 -1 -13zm-17 -13l17 13 -11 14 -17 -13 -2 -12 13 -2zm-13 2l5 -7 8 5 -13 2zm-8 10l8 -10 14 11 -8 10 -11 3 -3 -14zm14 11l-4 6 -7 -3 11 -3zm-33 -11l18 0 -7 -9 0 0 1 0 1 0 0 1 1 0 1 0 0 0 1 0 0 0 1 1 1 0 0 0 1 0 1 0 0 0 1 1 0 0 1 0 1 0 0 1 1 0 0 0 1 0 1 1 0 0 1 0 0 0 1 1 0 0 1 0 1 0 0 1 -8 16 0 -1 -1 0 0 0 -1 0 0 0 -1 -1 0 0 -1 0 0 0 0 0 -1 -1 0 0 -1 0 0 0 -1 0 0 0 0 -1 -1 0 0 0 -1 0 0 0 -1 0 0 0 -1 0 0 -1 -1 0 0 0 -1 0 0 0 0 0 -1 0 0 0 -8 -9zm8 9l-8 -2 0 -7 8 9zm10 -22l0 13 -18 0 0 -13 9 -9 9 9zm-9 -9l9 0 0 9 -9 -9zm-21 0l21 0 0 18 -21 0 -9 -9 9 -9zm-9 9l0 -9 9 0 -9 9zm0 13l0 -13 17 0 0 13 -7 9 -10 -9zm17 0l0 7 -7 2 7 -9zm-32 11l15 -11 -11 -3 0 0 1 0 0 -1 1 0 0 0 1 0 0 -1 1 0 0 0 1 0 1 0 0 -1 1 0 0 0 1 0 0 -1 1 0 1 0 0 0 1 0 0 0 1 -1 1 0 0 0 1 0 0 0 1 0 0 0 1 -1 1 0 0 0 1 0 3 18 0 0 -1 0 0 0 -1 0 0 0 -1 0 0 0 0 1 -1 0 0 0 -1 0 0 0 -1 0 0 0 -1 0 0 1 0 0 -1 0 0 0 -1 0 0 0 -1 0 0 1 0 0 -1 0 0 0 -1 0 0 0 0 1 -1 0 0 0 -1 0 -11 -2zm11 2l-6 3 -5 -5 11 2zm-4 -24l8 11 -15 11 -8 -11 2 -13 13 2zm-13 -2l7 -5 6 7 -13 -2zm-17 13l17 -13 11 15 -17 13 -13 -2 2 -13zm-2 13l-5 -7 7 -6 -2 13zm8 10l-8 -10 14 -11 8 11 0 11 -14 -1zm14 -10l5 6 -5 5 0 -11zm-18 24l6 -17 -11 4 1 -1 0 0 0 0 0 -1 1 0 0 -1 0 0 0 0 1 -1 0 0 0 -1 1 0 0 0 0 -1 0 0 1 0 0 -1 0 0 0 0 1 -1 0 0 0 -1 1 0 0 0 0 -1 1 0 0 0 0 -1 1 0 0 -1 0 0 1 0 13 12 -1 1 0 0 0 0 0 0 -1 1 0 0 0 0 0 0 -1 1 0 0 0 0 0 0 0 1 -1 0 0 0 0 0 0 1 -1 0 0 0 0 1 0 0 0 0 -1 0 0 1 0 0 0 0 0 1 0 0 -1 0 0 0 0 1 0 0 -11 4zm11 -4l-4 6 -7 -2 11 -4zm-17 -17l12 4 -6 17 -12 -5 -5 -11 11 -5zm-11 5l3 -8 8 3 -11 5zm-8 20l8 -20 16 6 -7 20 -12 6 -5 -12zm5 12l-8 -3 3 -9 5 12zm12 4l-12 -4 7 -17 12 4 5 10 -12 7zm7 -17l7 3 -2 7 -5 -10zm4 20l-18 0 0 0 0 0 0 -1 0 0 0 -1 0 0 0 0 0 -1 0 0 0 -1 0 0 1 -1 0 0 0 0 0 -1 0 0 0 -1 0 0 0 0 0 -1 0 0 0 -1 0 0 0 -1 0 0 0 0 0 -1 0 0 0 -1 0 0 0 0 1 -1 0 0 17 3 0 1 0 0 0 0 0 1 0 0 0 0 0 0 0 1 0 0 0 0 0 1 0 0 0 0 0 1 0 0 0 0 0 0 -1 1 0 0 0 0 0 1 0 0 0 0 0 1 0 0 0 0 0 0 0 1 0 0 0 0 0 1 0 0 0 0zm-6 13l-5 -18 -6 9 0 0 0 0 0 0 0 0 0 0 0 0 -1 -1 0 0 0 1 0 -1 0 0 0 0 0 0 0 0 0 -1 0 0 0 0 0 0 0 0 0 0 0 0 0 -1 0 0 0 0 0 0 0 0 0 0 0 0 0 -1 0 0 0 0 0 0 18 0 0 0 0 0 0 0 0 0 0 0 0 1 0 0 0 0 0 0 0 0 0 0 0 0 0 0 0 0 0 0 0 1 0 0 0 -1 0 1 0 0 0 0 0 0 0 0 0 1 0 0 0 -1 0 1 0 0 0 0 0 0 0 0 0 0 -6 10zm6 -10l1 8 -7 2 6 -10zm-23 -5l12 -3 5 18 -12 3 -11 -7 6 -11zm-6 11l-3 -8 9 -3 -6 11zm5 21l-5 -21 17 -4 6 21 -7 11 -11 -7zm11 7l-9 2 -2 -9 11 7zm12 -3l-12 3 -4 -18 11 -3 11 5 -6 13zm-5 -18l8 -2 3 7 -11 -5zm20 30l-14 -11 0 11 0 0 -1 -1 0 0 -1 -1 0 0 0 -1 -1 0 0 -1 -1 0 0 -1 -1 0 0 -1 0 0 -1 -1 0 0 0 -1 -1 -1 0 0 0 -1 -1 0 0 -1 0 -1 -1 0 0 -1 0 0 -1 -1 0 0 0 -1 -1 -1 0 0 0 -1 0 0 16 -8 0 1 0 0 1 1 0 0 0 0 0 1 0 0 1 1 0 0 0 1 0 0 1 1 0 0 0 0 0 1 1 0 0 1 0 0 0 0 1 1 0 0 0 1 1 0 0 0 0 1 1 0 0 1 0 0 1 0 0 1 0 0 0 1 1 11zm-1 -11l5 5 -4 6 -1 -11zm-21 10l8 -10 14 11 -7 10 -13 1 -2 -12zm2 12l-7 -5 5 -7 2 12zm17 13l-17 -13 11 -14 17 13 2 13 -13 1zm13 -1l-6 7 -7 -6 13 -1zm7 -10l-7 10 -15 -11 8 -10 11 -2 3 13zm-14 -11l4 -6 7 4 -11 2zm33 12l-17 0 7 9 -1 0 0 0 -1 -1 -1 0 0 0 -1 0 -1 0 0 0 -1 -1 -1 0 0 0 -1 0 -1 0 0 -1 -1 0 -1 0 0 0 -1 0 -1 -1 0 0 -1 0 0 0 -1 -1 -1 0 0 0 -1 0 0 -1 -1 0 -1 0 0 -1 -1 0 0 0 8 -16 1 0 0 0 0 1 1 0 0 0 1 0 0 0 1 1 0 0 1 0 0 0 0 0 1 1 0 0 1 0 0 0 1 0 0 0 1 1 0 0 1 0 0 0 1 0 0 0 1 0 0 1 1 0 0 0 1 0 0 0 1 0 0 0 7 9zm-7 -9l7 1 0 8 -7 -9zm-10 21l0 -12 17 0 0 12 -8 9 -9 -9zm9 9l-9 0 0 -9 9 9zm21 0l-21 0 0 -18 21 0 9 9 -9 9zm9 -9l0 9 -9 0 9 -9zm0 -12l0 12 -18 0 0 -12 8 -9 10 9zm-18 0l0 -8 8 -1 -8 9zm33 -11l-14 11 11 2 0 1 -1 0 -1 0 0 0 -1 1 0 0 -1 0 0 0 -1 1 -1 0 0 0 -1 0 0 1 -1 0 -1 0 0 0 -1 0 0 1 -1 0 -1 0 0 0 -1 0 -1 1 0 0 -1 0 0 0 -1 0 -1 0 0 0 -1 1 -1 0 0 0 -3 -18 0 0 1 0 0 0 0 0 1 0 0 0 1 -1 0 0 1 0 0 0 1 0 0 0 1 0 0 0 1 -1 0 0 1 0 0 0 0 0 1 0 0 -1 1 0 0 0 1 0 0 0 0 0 1 -1 0 0 1 0 0 0 1 0 0 -1 11 3zm-11 -3l7 -3 4 6 -11 -3zm4 23l-7 -9 14 -11 7 9 -1 13 -13 -2zm13 2l-8 5 -5 -7 13 2zm17 -13l-17 13 -11 -14 17 -13 13 1 -2 13zm2 -13l5 8 -7 5 2 -13zm-8 -9l8 9 -15 11 -7 -9 1 -12 13 1zm-14 11l-4 -6 5 -6 -1 12zm18 -25l-6 17 11 -4 0 0 0 1 -1 0 0 0 0 1 0 0 -1 1 0 0 0 0 0 1 -1 0 0 1 0 0 -1 0 0 1 0 0 0 1 -1 0 0 0 0 1 -1 0 0 1 0 0 -1 0 0 1 0 0 -1 0 0 1 0 0 -1 1 0 0 0 0 -13 -12 0 0 0 0 0 -1 1 0 0 0 0 -1 0 0 1 0 0 0 0 -1 0 0 0 0 1 0 0 -1 0 0 0 0 1 -1 0 0 0 0 0 -1 0 0 1 0 0 0 0 -1 0 0 0 0 1 -1 0 0 0 0 0 -1 0 0 0 0 11 -4zm-11 4l4 -7 7 3 -11 4zm17 17l-12 -4 6 -17 12 4 5 12 -11 5zm11 -5l-3 8 -8 -3 11 -5zm8 -21l-8 21 -17 -7 8 -20 11 -5 6 11zm-6 -11l9 3 -3 8 -6 -11zm-11 -5l11 5 -6 17 -12 -5 -5 -10 12 -7zm-7 17l-6 -2 1 -8 5 10zm-5 -18l18 0 0 0 0 0 0 1 0 0 0 0 0 1 0 0 0 0 0 1 0 0 0 0 0 1 0 0 0 1 0 0 0 0 0 1 0 0 0 0 0 1 0 0 0 0 0 1 0 0 0 0 0 1 0 0 0 1 0 0 0 0 -1 1 0 0 0 0 -17 -3 0 0 0 0 0 0 0 -1 0 0 0 0 0 0 0 -1 0 0 0 0 0 0 0 -1 0 0 0 0 0 -1 0 0 0 0 0 0 0 -1 0 0 0 0 0 0 0 -1 0 0 0 0 0 0 0 -1 0 0 0 0 0 -1 0 0 0 0 0 0z"/>
   </g>
  </g>
  <path class="fil0" d="M-107100 -40361c-1380,0 -2499,-1120 -2499,-2500 0,-1380 1119,-2499 2499,-2499 1380,0 2499,1119 2499,2499 0,1380 -1119,2500 -2499,2500zm3670 -2453c0,-112 -6,-222 -15,-330l735 -193 -330 -1259 -749 196c-158,-329 -364,-631 -608,-896l481 -624 -1030 -795 -487 631c-316,-161 -657,-277 -1016,-342l0 -802 -1302 0 0 802c-341,62 -666,169 -968,318l-478 -638 -1042 780 473 631c-180,190 -340,399 -476,624l-731 -269 -450 1221 717 265c-42,220 -64,447 -64,680 0,80 3,160 8,239l-728 191 330 1259 712 -186c154,343 360,658 607,936l-443 574 1031 795 436 -564c329,174 688,299 1066,367l0 710 1302 0 0 -710c360,-65 703,-181 1018,-343l428 571 1042 -780 -434 -579c184,-201 345,-422 481,-660l688 253 449 -1221 -701 -258c31,-194 48,-392 48,-594z"/>
  <path class="fil1 str0" d="M-107100 -40361c-1380,0 -2499,-1120 -2499,-2500 0,-1380 1119,-2499 2499,-2499 1380,0 2499,1119 2499,2499 0,1380 -1119,2500 -2499,2500zm3670 -2453c0,-112 -6,-222 -15,-330l735 -193 -330 -1259 -749 196c-158,-329 -364,-631 -608,-896l481 -624 -1030 -795 -487 631c-316,-161 -657,-277 -1016,-342l0 -802 -1302 0 0 802c-341,62 -666,169 -968,318l-478 -638 -1042 780 473 631c-180,190 -340,399 -476,624l-731 -269 -450 1221 717 265c-42,220 -64,447 -64,680 0,80 3,160 8,239l-728 191 330 1259 712 -186c154,343 360,658 607,936l-443 574 1031 795 436 -564c329,174 688,299 1066,367l0 710 1302 0 0 -710c360,-65 703,-181 1018,-343l428 571 1042 -780 -434 -579c184,-201 345,-422 481,-660l688 253 449 -1221 -701 -258c31,-194 48,-392 48,-594z"/>
  <path class="fil1 str0" d="M-110081 -42861c0,-1646 1334,-2981 2981,-2981"/>
  <path class="fil0" d="M-91958 -42555l865 0 0 526 -292 0 0 3305c0,0 0,448 -573,448 -574,0 -574,-448 -574,-448l0 -3305 -291 0 0 -526 865 0z"/>
  <path class="fil1 str0" d="M-91958 -42555l865 0 0 526 -292 0 0 3305c0,0 0,448 -573,448 -574,0 -574,-448 -574,-448l0 -3305 -291 0 0 -526 865 0z"/>
  <path class="fil2" d="M-91594 -47445l-748 0c0,0 -53,644 200,885l0 4005 348 0 0 -4005c253,-241 200,-885 200,-885z"/>
  <path class="fil1 str0" d="M-91594 -47445l-748 0c0,0 -53,644 200,885l0 4005 348 0 0 -4005c253,-241 200,-885 200,-885z"/>
  <line class="fil1 str0" x1="-91775" y1="-41924" x2="-91775" y2= "-38913" />
  <line class="fil1 str0" x1="-92142" y1="-41921" x2="-92142" y2= "-38910" />
  <polygon class="fil0" points="-121723,-28742 -121904,-30931 -122579,-30931 -122760,-28742 "/>
  <polygon class="fil1 str0" points="-121723,-28742 -121904,-30931 -122579,-30931 -122760,-28742 "/>
  <path class="fil1 str0" d="M-117742 -25153c0,-1451 -608,-2925 -1796,-3893 -294,-239 -619,-437 -963,-591l-99 -638c-457,-211 -888,-317 -1279,-358l156 1891 -1037 0 157 -1897c-784,70 -1280,364 -1280,364l-114 638c-1187,545 -2050,1601 -2456,2766 -193,554 -288,1136 -288,1718l8999 0z"/>
  <line class="fil1 str0" x1="-120600" y1="-30275" x2="-120256" y2= "-28053" />
  <line class="fil1 str0" x1="-124280" y1="-28053" x2="-123883" y2= "-30275" />
  <path class="fil1 str0" d="M-125691 -27225c0,0 -456,801 -421,1412l2814 0"/>
  <path class="fil1 str0" d="M-117691 -25153l-9094 0c0,0 -410,15 -407,646l9901 0c3,-631 -400,-646 -400,-646z"/>
  <path class="fil0" d="M-58410 -10277c0,446 -360,807 -806,807l-4917 0c-446,0 -807,-361 -807,-807l0 -4602c0,-445 361,-806 807,-806l4917 0c446,0 806,361 806,806l0 4602z"/>
  <path class="fil1 str0" d="M-58410 -10277c0,446 -360,807 -806,807l-4917 0c-446,0 -807,-361 -807,-807l0 -4602c0,-445 361,-806 807,-806l4917 0c446,0 806,361 806,806l0 4602z"/>
  <path class="fil2" d="M-59677 -11170c0,273 -221,494 -493,494l-3009 0c-273,0 -495,-221 -495,-494l0 -2816c0,-272 222,-494 495,-494l3009 0c272,0 493,222 493,494l0 2816z"/>
  <path class="fil1 str0" d="M-59677 -11170c0,273 -221,494 -493,494l-3009 0c-273,0 -495,-221 -495,-494l0 -2816c0,-272 222,-494 495,-494l3009 0c272,0 493,222 493,494l0 2816z"/>
  <path class="fil0" d="M-61675 -11799c-430,0 -779,-348 -779,-779 0,-430 349,-778 779,-778 430,0 779,348 779,778 0,431 -349,779 -779,779zm1144 -764c0,-35 -2,-69 -5,-103l229 -60 -102 -393 -234 62c-49,-103 -113,-197 -190,-280l151 -194 -322 -248 -152 197c-97,-50 -204,-86 -316,-106l0 -250 -406 0 0 250c-107,18 -207,52 -302,98l-149 -198 -324 243 147 196c-56,60 -106,124 -149,195l-227 -84 -141 381 224 82c-13,69 -20,140 -20,212 0,25 1,50 3,75l-227 59 103 393 222 -59c48,107 112,206 189,292l-138 179 321 248 136 -176c103,54 214,93 332,115l0 221 406 0 0 -221c112,-21 219,-57 317,-107l133 178 325 -244 -135 -180c58,-63 108,-132 150,-206l214 79 140 -380 -218 -81c10,-61 15,-122 15,-185z"/>
  <path class="fil1 str0" d="M-61675 -11799c-430,0 -779,-348 -779,-779 0,-430 349,-778 779,-778 430,0 779,348 779,778 0,431 -349,779 -779,779zm1144 -764c0,-35 -2,-69 -5,-103l229 -60 -102 -393 -234 62c-49,-103 -113,-197 -190,-280l151 -194 -322 -248 -152 197c-97,-50 -204,-86 -316,-106l0 -250 -406 0 0 250c-107,18 -207,52 -302,98l-149 -198 -324 243 147 196c-56,60 -106,124 -149,195l-227 -84 -141 381 224 82c-13,69 -20,140 -20,212 0,25 1,50 3,75l-227 59 103 393 222 -59c48,107 112,206 189,292l-138 179 321 248 136 -176c103,54 214,93 332,115l0 221 406 0 0 -221c112,-21 219,-57 317,-107l133 178 325 -244 -135 -180c58,-63 108,-132 150,-206l214 79 140 -380 -218 -81c10,-61 15,-122 15,-185z"/>
  <polygon class="fil0" points="-63972,-16740 -63972,-15685 "/>
  <line class="fil1 str0" x1="-63972" y1="-16740" x2="-63972" y2= "-15685" />
  <polygon class="fil0" points="-63207,-16740 -63207,-15685 "/>
  <line class="fil1 str0" x1="-63207" y1="-16740" x2="-63207" y2= "-15685" />
  <polygon class="fil0" points="-62441,-16740 -62441,-15685 "/>
  <line class="fil1 str0" x1="-62441" y1="-16740" x2="-62441" y2= "-15685" />
  <polygon class="fil0" points="-61675,-16740 -61675,-15685 "/>
  <line class="fil1 str0" x1="-61675" y1="-16740" x2="-61675" y2= "-15685" />
  <polygon class="fil0" points="-60909,-16740 -60909,-15685 "/>
  <line class="fil1 str0" x1="-60909" y1="-16740" x2="-60909" y2= "-15685" />
  <polygon class="fil0" points="-60143,-16740 -60143,-15685 "/>
  <line class="fil1 str0" x1="-60143" y1="-16740" x2="-60143" y2= "-15685" />
  <polygon class="fil0" points="-59378,-16740 -59378,-15685 "/>
  <line class="fil1 str0" x1="-59378" y1="-16740" x2="-59378" y2= "-15685" />
  <polygon class="fil0" points="-57354,-14875 -58410,-14875 "/>
  <line class="fil1 str0" x1="-57354" y1="-14875" x2="-58410" y2= "-14875" />
  <polygon class="fil0" points="-57354,-14109 -58410,-14109 "/>
  <line class="fil1 str0" x1="-57354" y1="-14109" x2="-58410" y2= "-14109" />
  <polygon class="fil0" points="-57354,-13343 -58410,-13343 "/>
  <line class="fil1 str0" x1="-57354" y1="-13343" x2="-58410" y2= "-13343" />
  <polygon class="fil0" points="-57354,-12578 -58410,-12578 "/>
  <line class="fil1 str0" x1="-57354" y1="-12578" x2="-58410" y2= "-12578" />
  <polygon class="fil0" points="-57354,-11812 -58410,-11812 "/>
  <line class="fil1 str0" x1="-57354" y1="-11812" x2="-58410" y2= "-11812" />
  <polygon class="fil0" points="-57354,-11046 -58410,-11046 "/>
  <line class="fil1 str0" x1="-57354" y1="-11046" x2="-58410" y2= "-11046" />
  <polygon class="fil0" points="-57354,-10281 -58410,-10281 "/>
  <line class="fil1 str0" x1="-57354" y1="-10281" x2="-58410" y2= "-10281" />
  <polygon class="fil0" points="-59378,-8415 -59378,-9470 "/>
  <line class="fil1 str0" x1="-59378" y1="-8415" x2="-59378" y2= "-9470" />
  <polygon class="fil0" points="-60143,-8415 -60143,-9470 "/>
  <line class="fil1 str0" x1="-60143" y1="-8415" x2="-60143" y2= "-9470" />
  <polygon class="fil0" points="-60909,-8415 -60909,-9470 "/>
  <line class="fil1 str0" x1="-60909" y1="-8415" x2="-60909" y2= "-9470" />
  <polygon class="fil0" points="-61675,-8415 -61675,-9470 "/>
  <line class="fil1 str0" x1="-61675" y1="-8415" x2="-61675" y2= "-9470" />
  <polygon class="fil0" points="-62441,-8415 -62441,-9470 "/>
  <line class="fil1 str0" x1="-62441" y1="-8415" x2="-62441" y2= "-9470" />
  <polygon class="fil0" points="-63207,-8415 -63207,-9470 "/>
  <line class="fil1 str0" x1="-63207" y1="-8415" x2="-63207" y2= "-9470" />
  <polygon class="fil0" points="-63972,-8415 -63972,-9470 "/>
  <line class="fil1 str0" x1="-63972" y1="-8415" x2="-63972" y2= "-9470" />
  <polygon class="fil0" points="-65995,-10281 -64940,-10281 "/>
  <line class="fil1 str0" x1="-65995" y1="-10281" x2="-64940" y2= "-10281" />
  <polygon class="fil0" points="-65995,-11046 -64940,-11046 "/>
  <line class="fil1 str0" x1="-65995" y1="-11046" x2="-64940" y2= "-11046" />
  <polygon class="fil0" points="-65995,-11812 -64940,-11812 "/>
  <line class="fil1 str0" x1="-65995" y1="-11812" x2="-64940" y2= "-11812" />
  <polygon class="fil0" points="-65995,-12578 -64940,-12578 "/>
  <line class="fil1 str0" x1="-65995" y1="-12578" x2="-64940" y2= "-12578" />
  <polygon class="fil0" points="-65995,-13343 -64940,-13343 "/>
  <line class="fil1 str0" x1="-65995" y1="-13343" x2="-64940" y2= "-13343" />
  <polygon class="fil0" points="-65995,-14109 -64940,-14109 "/>
  <line class="fil1 str0" x1="-65995" y1="-14109" x2="-64940" y2= "-14109" />
  <polygon class="fil0" points="-65995,-14875 -64940,-14875 "/>
  <line class="fil1 str0" x1="-65995" y1="-14875" x2="-64940" y2= "-14875" />
  <path class="fil1 str0" d="M-63893 -14796c0,131 -107,238 -239,238 -132,0 -238,-107 -238,-238 0,-132 106,-239 238,-239 132,0 239,107 239,239z"/>
  <path class="fil1 str0" d="M-63893 -10358c0,131 -107,239 -239,239 -132,0 -238,-108 -238,-239 0,-132 106,-239 238,-239 132,0 239,107 239,239z"/>
  <path class="fil1 str0" d="M-58900 -14796c0,131 -107,238 -239,238 -132,0 -239,-107 -239,-238 0,-132 107,-239 239,-239 132,0 239,107 239,239z"/>
  <path class="fil1 str0" d="M-58900 -10358c0,131 -107,239 -239,239 -132,0 -239,-108 -239,-239 0,-132 107,-239 239,-239 132,0 239,107 239,239z"/>
  <path class="fil0" d="M-60820 4830l-2683 0 2683 -2683 0 2683zm-5864 1341l7214 0 0 -7213 -7214 7213z"/>
  <path class="fil1 str0" d="M-60820 4830l-2683 0 2683 -2683 0 2683zm-5864 1341l7214 0 0 -7213 -7214 7213z"/>
  <polygon class="fil0" points="-65800,5796 -65800,6171 "/>
  <line class="fil1 str0" x1="-65800" y1="5796" x2="-65800" y2= "6171" />
  <polygon class="fil0" points="-65345,5796 -65345,6171 "/>
  <line class="fil1 str0" x1="-65345" y1="5796" x2="-65345" y2= "6171" />
  <polygon class="fil0" points="-64891,5796 -64891,6171 "/>
  <line class="fil1 str0" x1="-64891" y1="5796" x2="-64891" y2= "6171" />
  <polygon class="fil0" points="-64436,5796 -64436,6171 "/>
  <line class="fil1 str0" x1="-64436" y1="5796" x2="-64436" y2= "6171" />
  <polygon class="fil0" points="-63982,5796 -63982,6171 "/>
  <line class="fil1 str0" x1="-63982" y1="5796" x2="-63982" y2= "6171" />
  <polygon class="fil0" points="-63528,5796 -63528,6171 "/>
  <line class="fil1 str0" x1="-63528" y1="5796" x2="-63528" y2= "6171" />
  <polygon class="fil0" points="-63074,5796 -63074,6171 "/>
  <line class="fil1 str0" x1="-63074" y1="5796" x2="-63074" y2= "6171" />
  <polygon class="fil0" points="-62619,5796 -62619,6171 "/>
  <line class="fil1 str0" x1="-62619" y1="5796" x2="-62619" y2= "6171" />
  <polygon class="fil0" points="-62165,5796 -62165,6171 "/>
  <line class="fil1 str0" x1="-62165" y1="5796" x2="-62165" y2= "6171" />
  <polygon class="fil0" points="-61710,5796 -61710,6171 "/>
  <line class="fil1 str0" x1="-61710" y1="5796" x2="-61710" y2= "6171" />
  <polygon class="fil0" points="-61256,5796 -61256,6171 "/>
  <line class="fil1 str0" x1="-61256" y1="5796" x2="-61256" y2= "6171" />
  <polygon class="fil0" points="-60801,5796 -60801,6171 "/>
  <line class="fil1 str0" x1="-60801" y1="5796" x2="-60801" y2= "6171" />
  <polygon class="fil0" points="-60347,5796 -60347,6171 "/>
  <line class="fil1 str0" x1="-60347" y1="5796" x2="-60347" y2= "6171" />
  <polygon class="fil0" points="-59893,5796 -59893,6171 "/>
  <line class="fil1 str0" x1="-59893" y1="5796" x2="-59893" y2= "6171" />
  <path class="fil2" d="M-56667 4743c0,137 -111,249 -249,249l-2882 0c-138,0 -250,-112 -250,-249l0 -4307c0,-138 112,-250 250,-250l2882 0c138,0 249,112 249,250l0 4307z"/>
  <path class="fil1 str0" d="M-56667 4743c0,137 -111,249 -249,249l-2882 0c-138,0 -250,-112 -250,-249l0 -4307c0,-138 112,-250 250,-250l2882 0c138,0 249,112 249,250l0 4307z"/>
  <polygon class="fil0" points="-59666,1346 -57050,1346 -57050,765 -59666,765 "/>
  <polygon class="fil1 str0" points="-59666,1346 -57050,1346 -57050,765 -59666,765 "/>
  <polygon class="fil0" points="-59424,2342 -58929,2342 -58929,1847 -59424,1847 "/>
  <polygon class="fil1 str0" points="-59424,2342 -58929,2342 -58929,1847 -59424,1847 "/>
  <polygon class="fil0" points="-58605,2342 -58110,2342 -58110,1847 -58605,1847 "/>
  <polygon class="fil1 str0" points="-58605,2342 -58110,2342 -58110,1847 -58605,1847 "/>
  <polygon class="fil0" points="-57785,2342 -57290,2342 -57290,1847 -57785,1847 "/>
  <polygon class="fil1 str0" points="-57785,2342 -57290,2342 -57290,1847 -57785,1847 "/>
  <polygon class="fil0" points="-59424,3174 -58929,3174 -58929,2679 -59424,2679 "/>
  <polygon class="fil1 str0" points="-59424,3174 -58929,3174 -58929,2679 -59424,2679 "/>
  <polygon class="fil0" points="-58605,3174 -58110,3174 -58110,2679 -58605,2679 "/>
  <polygon class="fil1 str0" points="-58605,3174 -58110,3174 -58110,2679 -58605,2679 "/>
  <polygon class="fil0" points="-57785,3174 -57290,3174 -57290,2679 -57785,2679 "/>
  <polygon class="fil1 str0" points="-57785,3174 -57290,3174 -57290,2679 -57785,2679 "/>
  <polygon class="fil0" points="-59424,4006 -58929,4006 -58929,3511 -59424,3511 "/>
  <polygon class="fil1 str0" points="-59424,4006 -58929,4006 -58929,3511 -59424,3511 "/>
  <polygon class="fil0" points="-58605,4006 -58110,4006 -58110,3511 -58605,3511 "/>
  <polygon class="fil1 str0" points="-58605,4006 -58110,4006 -58110,3511 -58605,3511 "/>
  <polygon class="fil0" points="-57785,4006 -57290,4006 -57290,3511 -57785,3511 "/>
  <polygon class="fil1 str0" points="-57785,4006 -57290,4006 -57290,3511 -57785,3511 "/>
  <path class="fil1 str0" d="M-56982 3915l0 530c0,138 -112,250 -250,250l-826 0"/>
  <polygon class="fil0" points="-65820,4147 -66284,3683 -62780,179 -62316,643 "/>
  <polygon class="fil1 str1" points="-65820,4147 -66284,3683 -62780,179 -62316,643 "/>
  <polygon class="fil1 str1" points="-62316,643 -62780,179 -62534,-67 -62071,397 "/>
  <path class="fil1 str1" d="M-62071 397l134 -134c128,-128 128,-335 0,-464 -128,-127 -336,-127 -464,0l-133 134 463 464z"/>
  <polygon class="fil1 str1" points="-66284,3683 -65820,4147 -66608,4470 "/>
  <polygon class="fil1 str1" points="-66448,4081 -66608,4470 -66218,4310 "/>
  <line class="fil1 str1" x1="-62548" y1="411" x2="-66052" y2= "3915" />
 </g>
</svg>
